<svg width="1415" height="341" viewBox="0 0 1415 341" fill="none" xmlns="http://www.w3.org/2000/svg">
<rect width="1415" height="341" fill="black"/>
<path d="M707.5 316.653V341H609.61C639.571 325.016 673.256 316.637 707.5 316.653ZM379.008 341C379.008 327.578 367.688 316.653 353.75 316.653C339.826 316.653 328.492 327.565 328.492 341H276.816C247.139 296.173 206.217 259.282 157.833 233.736C109.45 208.191 55.1658 194.816 0 194.847V170.5C8.4617 170.5 16.9093 170.773 25.2577 171.359V170.5C25.2577 157.078 13.9377 146.153 0 146.153V121.805C12.5345 121.796 24.6248 126.279 33.9214 134.384C43.218 142.488 49.0568 153.635 50.3032 165.658C60.6946 149.037 72.5286 133.294 85.6782 118.6C76.5516 104.648 63.9072 93.1526 48.9248 85.1861C33.9424 77.2195 17.1106 73.0416 0 73.0422V48.6948C20.2263 48.6833 40.1591 53.3587 58.1187 62.327C76.0782 71.2953 91.5383 84.2937 103.196 100.227C115.082 88.66 127.958 77.9526 141.5 68.2C125.035 47.0136 103.674 29.8186 79.1114 17.98C54.5489 6.14141 27.4617 -0.0148162 0 2.67767e-05H97.8897C123.204 13.3672 145.037 32.0267 162.343 54.1917C176.613 45.3491 191.518 37.4954 206.944 30.69C198.977 19.778 190.091 9.54803 180.412 2.67767e-05H214.514C220.202 6.82003 225.622 13.9128 230.815 21.2102C247.229 15.345 264.039 10.5983 281.33 7.18831C279.96 4.71353 278.448 2.31377 276.802 2.67767e-05H328.492V0.859347C345.311 -0.25935 362.189 -0.25935 379.008 0.859347V2.67767e-05H430.684L425.986 7.18831C443.461 10.5983 460.37 15.345 476.671 21.2102C481.708 13.9128 487.284 6.82003 493.085 2.67767e-05H527.087C517.409 9.54803 508.509 19.778 500.556 30.69C516.093 37.51 531.007 45.2848 545.27 54.1917C562.478 31.9258 584.412 13.4514 609.61 2.67767e-05H707.5C649.626 2.67767e-05 598.219 26.8026 566 68.2C579.542 77.9526 592.418 88.66 604.304 100.227C615.962 84.2937 631.422 71.2953 649.381 62.327C667.341 53.3587 687.274 48.6833 707.5 48.6948V73.0422C690.415 73.0553 673.613 77.2404 658.66 85.2069C643.707 93.1735 631.092 104.662 621.991 118.6C635.052 133.324 646.827 149.064 657.197 165.658C658.443 153.635 664.282 142.488 673.579 134.384C682.875 126.279 694.965 121.796 707.5 121.805V146.153C700.651 146.153 694.057 148.812 689.317 153.559C684.563 158.347 682.016 164.744 682.242 171.359C690.648 170.779 699.073 170.493 707.5 170.5V194.847C591.258 194.847 488.953 253.09 430.684 341H379.008ZM97.8897 341H0V316.653C35.4882 316.653 68.9813 325.546 97.8897 341ZM707.5 243.542V267.958C636.75 267.958 572.962 295.92 527.087 341H492.986C519.051 310.487 551.807 285.921 588.899 269.069C625.991 252.218 666.495 243.5 707.5 243.542ZM214.401 341H180.412C156.919 317.836 128.853 299.439 97.8679 286.894C66.8831 274.35 33.6067 267.911 0 267.958V243.542C40.99 243.49 81.4815 252.205 118.556 269.057C155.631 285.91 188.366 310.481 214.401 341ZM404.053 336.158C414.445 319.537 426.279 303.794 439.428 289.1C430.331 275.136 417.706 263.627 402.736 255.649C387.766 247.672 370.94 243.487 353.835 243.487C336.729 243.487 319.904 247.672 304.934 255.649C289.964 263.627 277.339 275.136 268.242 289.1C281.302 303.824 293.077 319.564 303.447 336.158C304.693 324.135 310.532 312.988 319.829 304.884C329.125 296.779 341.216 292.296 353.75 292.305C366.284 292.296 378.375 296.779 387.671 304.884C396.968 312.988 402.807 324.135 404.053 336.158ZM584.579 191.71C600.993 185.845 617.789 181.098 635.094 177.688C605.913 130.878 564.66 92.1445 515.349 65.2549C466.038 38.3653 410.348 24.235 353.693 24.2383C297.035 24.2439 241.342 38.3777 192.026 65.2661C142.71 92.1544 101.448 130.883 72.2499 177.688C89.711 181.098 106.634 185.845 122.935 191.71C148.31 155.137 182.647 125.158 222.906 104.425C263.165 83.6924 308.106 72.8462 353.75 72.8462C399.394 72.8462 444.335 83.6924 484.594 104.425C524.853 125.158 559.204 155.137 584.579 191.71ZM515.98 224.692C530.289 215.848 545.231 207.995 560.694 201.19C537.429 169.081 506.467 142.859 470.438 124.754C434.41 106.648 394.38 97.194 353.75 97.194C313.12 97.194 273.09 106.648 237.062 124.754C201.033 142.859 170.071 169.081 146.806 201.19C162.343 208.01 177.257 215.785 191.52 224.692C210.297 200.257 234.753 180.404 262.926 166.725C291.099 153.045 322.205 145.92 353.75 145.92C385.295 145.92 416.401 153.045 444.574 166.725C472.747 180.404 497.203 200.257 515.98 224.692ZM456.946 270.727C468.832 259.16 481.708 248.453 495.25 238.7C478.803 217.483 457.449 200.257 432.886 188.389C408.322 176.522 381.226 170.341 353.75 170.336C298.027 170.336 245.573 195.707 212.25 238.7C225.792 248.453 238.668 259.16 250.554 270.727C262.194 254.769 277.648 241.748 295.61 232.762C313.571 223.776 333.513 219.089 353.75 219.099C373.987 219.089 393.928 223.776 411.89 232.762C429.852 241.748 445.306 254.769 456.946 270.727Z" fill="#144DFF" fill-opacity="0.15"/>
<path d="M1415 316.653V341H1317.11C1347.07 325.016 1380.76 316.637 1415 316.653ZM1086.51 341C1086.51 327.578 1075.19 316.653 1061.25 316.653C1047.33 316.653 1035.99 327.565 1035.99 341H984.316C954.639 296.173 913.717 259.282 865.333 233.736C816.95 208.191 762.666 194.816 707.5 194.847V170.5C715.962 170.5 724.409 170.773 732.758 171.359V170.5C732.758 157.078 721.438 146.153 707.5 146.153V121.805C720.034 121.796 732.125 126.279 741.421 134.384C750.718 142.488 756.557 153.635 757.803 165.658C768.195 149.037 780.029 133.294 793.178 118.6C784.052 104.648 771.407 93.1526 756.425 85.1861C741.442 77.2195 724.61 73.0416 707.5 73.0422V48.6948C727.726 48.6833 747.659 53.3587 765.619 62.327C783.578 71.2953 799.038 84.2937 810.696 100.227C822.582 88.66 835.458 77.9526 849 68.2C832.535 47.0136 811.174 29.8186 786.611 17.98C762.049 6.14141 734.962 -0.0148162 707.5 2.67767e-05H805.39C830.704 13.3672 852.537 32.0267 869.843 54.1917C884.113 45.3491 899.018 37.4954 914.444 30.69C906.477 19.778 897.591 9.54803 887.912 2.67767e-05H922.014C927.702 6.82003 933.122 13.9128 938.315 21.2102C954.729 15.345 971.539 10.5983 988.83 7.18831C987.46 4.71353 985.948 2.31377 984.302 2.67767e-05H1035.99V0.859347C1052.81 -0.25935 1069.69 -0.25935 1086.51 0.859347V2.67767e-05H1138.18L1133.49 7.18831C1150.96 10.5983 1167.87 15.345 1184.17 21.2102C1189.21 13.9128 1194.78 6.82003 1200.58 2.67767e-05H1234.59C1224.91 9.54803 1216.01 19.778 1208.06 30.69C1223.59 37.51 1238.51 45.2848 1252.77 54.1917C1269.98 31.9258 1291.91 13.4514 1317.11 2.67767e-05H1415C1357.13 2.67767e-05 1305.72 26.8026 1273.5 68.2C1287.04 77.9526 1299.92 88.66 1311.8 100.227C1323.46 84.2937 1338.92 71.2953 1356.88 62.327C1374.84 53.3587 1394.77 48.6833 1415 48.6948V73.0422C1397.92 73.0553 1381.11 77.2404 1366.16 85.2069C1351.21 93.1735 1338.59 104.662 1329.49 118.6C1342.55 133.324 1354.33 149.064 1364.7 165.658C1365.94 153.635 1371.78 142.488 1381.08 134.384C1390.38 126.279 1402.47 121.796 1415 121.805V146.153C1408.15 146.153 1401.56 148.812 1396.82 153.559C1392.06 158.347 1389.52 164.744 1389.74 171.359C1398.15 170.779 1406.57 170.493 1415 170.5V194.847C1298.76 194.847 1196.45 253.09 1138.18 341H1086.51ZM805.39 341H707.5V316.653C742.988 316.653 776.481 325.546 805.39 341ZM1415 243.542V267.958C1344.25 267.958 1280.46 295.92 1234.59 341H1200.49C1226.55 310.487 1259.31 285.921 1296.4 269.069C1333.49 252.218 1374 243.5 1415 243.542ZM921.901 341H887.912C864.419 317.836 836.353 299.439 805.368 286.894C774.383 274.35 741.107 267.911 707.5 267.958V243.542C748.49 243.49 788.981 252.205 826.056 269.057C863.131 285.91 895.865 310.481 921.901 341ZM1111.55 336.158C1121.94 319.537 1133.78 303.794 1146.93 289.1C1137.83 275.136 1125.21 263.627 1110.24 255.649C1095.27 247.672 1078.44 243.487 1061.33 243.487C1044.23 243.487 1027.4 247.672 1012.43 255.649C997.464 263.627 984.839 275.136 975.741 289.1C988.802 303.824 1000.58 319.564 1010.95 336.158C1012.19 324.135 1018.03 312.988 1027.33 304.884C1036.63 296.779 1048.72 292.296 1061.25 292.305C1073.78 292.296 1085.87 296.779 1095.17 304.884C1104.47 312.988 1110.31 324.135 1111.55 336.158ZM1292.08 191.71C1308.49 185.845 1325.29 181.098 1342.59 177.688C1313.41 130.878 1272.16 92.1445 1222.85 65.2549C1173.54 38.3653 1117.85 24.235 1061.19 24.2383C1004.54 24.2439 948.842 38.3777 899.526 65.2661C850.21 92.1544 808.948 130.883 779.75 177.688C797.211 181.098 814.134 185.845 830.435 191.71C855.81 155.137 890.147 125.158 930.406 104.425C970.665 83.6924 1015.61 72.8462 1061.25 72.8462C1106.89 72.8462 1151.83 83.6924 1192.09 104.425C1232.35 125.158 1266.7 155.137 1292.08 191.71ZM1223.48 224.692C1237.79 215.848 1252.73 207.995 1268.19 201.19C1244.93 169.081 1213.97 142.859 1177.94 124.754C1141.91 106.648 1101.88 97.194 1061.25 97.194C1020.62 97.194 980.59 106.648 944.562 124.754C908.533 142.859 877.571 169.081 854.306 201.19C869.843 208.01 884.757 215.785 899.02 224.692C917.797 200.257 942.253 180.404 970.426 166.725C998.599 153.045 1029.7 145.92 1061.25 145.92C1092.8 145.92 1123.9 153.045 1152.07 166.725C1180.25 180.404 1204.7 200.257 1223.48 224.692ZM1164.45 270.727C1176.33 259.16 1189.21 248.453 1202.75 238.7C1186.3 217.483 1164.95 200.257 1140.39 188.389C1115.82 176.522 1088.73 170.341 1061.25 170.336C1005.53 170.336 953.073 195.707 919.75 238.7C933.292 248.453 946.168 259.16 958.054 270.727C969.694 254.769 985.148 241.748 1003.11 232.762C1021.07 223.776 1041.01 219.089 1061.25 219.099C1081.49 219.089 1101.43 223.776 1119.39 232.762C1137.35 241.748 1152.81 254.769 1164.45 270.727Z" fill="#144DFF" fill-opacity="0.15"/>
<path d="M1325.89 234.046C1325.89 244.417 1301.87 252.773 1272.25 252.773C1242.63 252.773 1218.6 244.342 1218.6 234.046C1218.6 223.675 1242.63 215.319 1272.25 215.319C1301.87 215.319 1325.89 223.675 1325.89 234.046Z" fill="white"/>
<mask id="mask0_16_36" style="mask-type:luminance" maskUnits="userSpaceOnUse" x="1241" y="228" width="61" height="51">
<path d="M1249.19 267.62C1250.39 273.216 1253.3 276.499 1256.21 278.438H1286.87C1290.6 275.902 1294.41 271.127 1294.41 262.174V239.045C1294.41 239.045 1294.85 233.3 1300.15 231.435C1300.15 231.435 1303.21 229.271 1299.93 228.077C1299.93 228.077 1285.38 226.883 1285.38 238.821V256.429C1285.38 256.429 1285.97 262.92 1282.54 265.606V243.82C1282.54 243.82 1282.77 236.881 1286.35 234.27C1286.35 234.27 1288.73 230.017 1283.51 231.136C1283.51 231.136 1273.51 232.554 1273.07 244.267L1272.84 266.65H1270.46L1270.23 244.267C1269.78 232.628 1259.79 231.136 1259.79 231.136C1254.56 229.942 1256.95 234.27 1256.95 234.27C1260.53 236.881 1260.76 243.82 1260.76 243.82V265.83C1257.32 263.367 1257.92 256.429 1257.92 256.429V238.821C1257.92 226.883 1243.37 228.077 1243.37 228.077C1240.01 229.271 1243.15 231.435 1243.15 231.435C1248.37 233.374 1248.89 239.045 1248.89 239.045V255.235L1249.19 267.62Z" fill="white"/>
</mask>
<g mask="url(#mask0_16_36)">
<path d="M1325.89 234.046C1325.89 244.417 1301.87 252.773 1272.25 252.773C1242.63 252.773 1218.6 244.342 1218.6 234.046C1218.6 223.675 1242.63 215.319 1272.25 215.319C1301.87 215.319 1325.89 223.675 1325.89 234.046Z" fill="black"/>
</g>
<path d="M1210.99 178.91L1209.42 184.281C1209.42 184.281 1209.05 186.221 1210.84 186.594C1212.78 186.52 1212.63 184.729 1212.48 184.207L1210.99 178.91Z" fill="white"/>
<path d="M1366.85 156.303L1367 155.631C1351.26 152.498 1335.14 152.423 1325.37 152.871C1326.93 147.126 1327.46 140.411 1327.46 133.025C1327.46 122.356 1323.43 113.85 1317.01 107.434C1318.13 103.778 1319.62 95.6455 1315.52 85.2748C1315.52 85.2748 1308.21 82.9619 1291.57 94.0787C1285.08 92.4373 1278.14 91.6166 1271.2 91.6166C1263.59 91.6166 1255.91 92.5866 1248.67 94.5264C1231.51 82.8127 1223.97 85.2002 1223.97 85.2002C1219.05 97.5108 1222.11 106.688 1223 108.926C1217.18 115.193 1213.68 123.176 1213.68 132.95C1213.68 140.337 1214.5 146.977 1216.59 152.722C1206.74 152.349 1191.22 152.498 1176 155.557L1176.15 156.228C1191.37 153.169 1207.04 153.095 1216.81 153.468C1217.26 154.662 1217.78 155.855 1218.3 156.974C1208.6 157.273 1192.12 158.541 1176.3 163.018L1176.52 163.689C1192.49 159.213 1209.13 158.019 1218.75 157.721C1224.57 168.464 1235.91 175.478 1256.21 177.641C1253.3 179.581 1250.39 182.864 1249.19 188.46C1245.24 190.325 1232.85 194.951 1225.39 182.118C1225.39 182.118 1221.21 174.508 1213.23 173.911C1213.23 173.911 1205.47 173.762 1212.71 178.76C1212.71 178.76 1217.86 181.223 1221.44 190.399C1221.44 190.399 1226.14 206.067 1248.59 200.994V217.035C1248.59 217.035 1248.15 222.78 1242.85 224.645C1242.85 224.645 1239.72 226.809 1243.07 228.003C1243.07 228.003 1257.62 229.196 1257.62 217.259V199.651C1257.62 199.651 1257.03 192.638 1260.46 190.25V219.199C1260.46 219.199 1260.23 226.137 1256.65 228.749C1256.65 228.749 1254.27 233.001 1259.49 231.882C1259.49 231.882 1269.49 230.465 1269.93 218.751L1270.16 189.43H1272.54L1272.77 218.751C1273.22 230.39 1283.21 231.882 1283.21 231.882C1288.44 233.076 1286.05 228.749 1286.05 228.749C1282.47 226.137 1282.24 219.199 1282.24 219.199V190.474C1285.68 193.16 1285.08 199.651 1285.08 199.651V217.259C1285.08 229.196 1299.63 228.003 1299.63 228.003C1302.99 226.809 1299.85 224.645 1299.85 224.645C1294.63 222.705 1294.11 217.035 1294.11 217.035V193.906C1294.11 184.878 1290.3 180.103 1286.57 177.641C1308.21 175.478 1318.58 168.539 1323.35 157.646C1332.83 157.87 1349.91 159.064 1366.18 163.689L1366.4 163.018C1350.21 158.467 1333.28 157.273 1323.65 156.974C1324.1 155.855 1324.47 154.736 1324.85 153.542C1334.84 153.169 1351.03 153.169 1366.85 156.303Z" fill="#154EFE"/>
<path d="M1306.27 132.503C1310.89 136.755 1313.65 141.829 1313.65 147.275C1313.65 172.941 1294.55 173.612 1270.98 173.612C1247.4 173.612 1228.3 170.031 1228.3 147.275C1228.3 141.829 1230.99 136.755 1235.61 132.577C1243.3 125.564 1256.28 129.294 1270.98 129.294C1285.68 129.294 1298.58 125.489 1306.27 132.503Z" fill="white"/>
<path d="M1256.8 148.618C1256.8 155.706 1252.85 161.376 1247.92 161.376C1243 161.376 1239.04 155.631 1239.04 148.618C1239.04 141.53 1243 135.86 1247.92 135.86C1252.85 135.785 1256.8 141.53 1256.8 148.618Z" fill="white"/>
<path d="M1253.97 148.767C1253.97 153.468 1251.28 157.273 1248.07 157.273C1244.79 157.273 1242.18 153.468 1242.18 148.767C1242.18 144.067 1244.86 140.262 1248.07 140.262C1251.28 140.262 1253.97 144.067 1253.97 148.767Z" fill="#154EFE"/>
<path d="M1304.48 148.618C1304.48 155.706 1300.52 161.376 1295.6 161.376C1290.67 161.376 1286.72 155.631 1286.72 148.618C1286.72 141.53 1290.67 135.86 1295.6 135.86C1300.45 135.785 1304.48 141.53 1304.48 148.618Z" fill="white"/>
<path d="M1301.57 148.767C1301.57 153.468 1298.88 157.273 1295.67 157.273C1292.39 157.273 1289.78 153.468 1289.78 148.767C1289.78 144.067 1292.47 140.262 1295.67 140.262C1298.96 140.262 1301.57 144.067 1301.57 148.767Z" fill="#154EFE"/>
<path d="M1216.66 175.701C1216.66 176.298 1215.99 176.746 1215.1 176.746C1214.27 176.746 1213.53 176.298 1213.53 175.701C1213.53 175.105 1214.2 174.657 1215.1 174.657C1215.99 174.657 1216.66 175.105 1216.66 175.701Z" fill="#154EFE"/>
<path d="M1220.99 178.089C1220.99 178.686 1220.32 179.133 1219.42 179.133C1218.6 179.133 1217.86 178.686 1217.86 178.089C1217.86 177.492 1218.53 177.044 1219.42 177.044C1220.32 177.044 1220.99 177.492 1220.99 178.089Z" fill="#154EFE"/>
<path d="M1223.6 181.222C1223.6 181.819 1222.93 182.267 1222.03 182.267C1221.21 182.267 1220.47 181.819 1220.47 181.222C1220.47 180.626 1221.14 180.178 1222.03 180.178C1222.93 180.103 1223.6 180.626 1223.6 181.222Z" fill="#154EFE"/>
<path d="M1225.99 184.804C1225.99 185.401 1225.32 185.848 1224.42 185.848C1223.6 185.848 1222.85 185.401 1222.85 184.804C1222.85 184.207 1223.53 183.759 1224.42 183.759C1225.32 183.685 1225.99 184.207 1225.99 184.804Z" fill="#154EFE"/>
<path d="M1228.6 188.087C1228.6 188.683 1227.93 189.131 1227.03 189.131C1226.21 189.131 1225.47 188.683 1225.47 188.087C1225.47 187.49 1226.14 187.042 1227.03 187.042C1227.93 187.042 1228.6 187.49 1228.6 188.087Z" fill="#154EFE"/>
<path d="M1232.18 190.996C1232.18 191.593 1231.51 192.041 1230.61 192.041C1229.79 192.041 1229.05 191.593 1229.05 190.996C1229.05 190.399 1229.72 189.952 1230.61 189.952C1231.51 189.877 1232.18 190.399 1232.18 190.996Z" fill="#154EFE"/>
<path d="M1237.18 192.862C1237.18 193.458 1236.51 193.906 1235.61 193.906C1234.79 193.906 1234.05 193.458 1234.05 192.862C1234.05 192.265 1234.72 191.817 1235.61 191.817C1236.51 191.817 1237.18 192.265 1237.18 192.862Z" fill="#154EFE"/>
<path d="M1242.18 192.862C1242.18 193.458 1241.51 193.906 1240.61 193.906C1239.79 193.906 1239.04 193.458 1239.04 192.862C1239.04 192.265 1239.72 191.817 1240.61 191.817C1241.51 191.817 1242.18 192.265 1242.18 192.862Z" fill="#154EFE"/>
<path d="M1247.25 192.041C1247.25 192.638 1246.58 193.085 1245.69 193.085C1244.86 193.085 1244.12 192.638 1244.12 192.041C1244.12 191.444 1244.79 190.996 1245.69 190.996C1246.51 190.996 1247.25 191.444 1247.25 192.041Z" fill="#154EFE"/>
<path d="M90.328 144.872V170H85.288V159.308H74.524V170H69.484V144.872H74.524V155.204H85.288V144.872H90.328ZM97.8447 147.68C96.9567 147.68 96.2127 147.404 95.6127 146.852C95.0367 146.276 94.7487 145.568 94.7487 144.728C94.7487 143.888 95.0367 143.192 95.6127 142.64C96.2127 142.064 96.9567 141.776 97.8447 141.776C98.7327 141.776 99.4647 142.064 100.041 142.64C100.641 143.192 100.941 143.888 100.941 144.728C100.941 145.568 100.641 146.276 100.041 146.852C99.4647 147.404 98.7327 147.68 97.8447 147.68ZM100.329 150.056V170H95.2887V150.056H100.329ZM119.754 154.196V163.844C119.754 164.516 119.91 165.008 120.222 165.32C120.558 165.608 121.11 165.752 121.878 165.752H124.218V170H121.05C116.802 170 114.678 167.936 114.678 163.808V154.196H112.302V150.056H114.678V145.124H119.754V150.056H124.218V154.196H119.754ZM139.075 149.768C140.587 149.768 141.931 150.104 143.107 150.776C144.283 151.424 145.195 152.396 145.843 153.692C146.515 154.964 146.851 156.5 146.851 158.3V170H141.811V158.984C141.811 157.4 141.415 156.188 140.623 155.348C139.831 154.484 138.751 154.052 137.383 154.052C135.991 154.052 134.887 154.484 134.071 155.348C133.279 156.188 132.883 157.4 132.883 158.984V170H127.843V143.36H132.883V152.54C133.531 151.676 134.395 151.004 135.475 150.524C136.555 150.02 137.755 149.768 139.075 149.768ZM170.184 159.596C170.184 160.316 170.136 160.964 170.04 161.54H155.46C155.58 162.98 156.084 164.108 156.972 164.924C157.86 165.74 158.952 166.148 160.248 166.148C162.12 166.148 163.452 165.344 164.244 163.736H169.68C169.104 165.656 168 167.24 166.368 168.488C164.736 169.712 162.732 170.324 160.356 170.324C158.436 170.324 156.708 169.904 155.172 169.064C153.66 168.2 152.472 166.988 151.608 165.428C150.768 163.868 150.348 162.068 150.348 160.028C150.348 157.964 150.768 156.152 151.608 154.592C152.448 153.032 153.624 151.832 155.136 150.992C156.648 150.152 158.388 149.732 160.356 149.732C162.252 149.732 163.944 150.14 165.432 150.956C166.944 151.772 168.108 152.936 168.924 154.448C169.764 155.936 170.184 157.652 170.184 159.596ZM164.964 158.156C164.94 156.86 164.472 155.828 163.56 155.06C162.648 154.268 161.532 153.872 160.212 153.872C158.964 153.872 157.908 154.256 157.044 155.024C156.204 155.768 155.688 156.812 155.496 158.156H164.964ZM178.903 153.152C179.551 152.096 180.391 151.268 181.423 150.668C182.479 150.068 183.679 149.768 185.023 149.768V155.06H183.691C182.107 155.06 180.907 155.432 180.091 156.176C179.299 156.92 178.903 158.216 178.903 160.064V170H173.863V150.056H178.903V153.152ZM206.958 159.596C206.958 160.316 206.91 160.964 206.814 161.54H192.234C192.354 162.98 192.858 164.108 193.746 164.924C194.634 165.74 195.726 166.148 197.022 166.148C198.894 166.148 200.226 165.344 201.018 163.736H206.454C205.878 165.656 204.774 167.24 203.142 168.488C201.51 169.712 199.506 170.324 197.13 170.324C195.21 170.324 193.482 169.904 191.946 169.064C190.434 168.2 189.246 166.988 188.382 165.428C187.542 163.868 187.122 162.068 187.122 160.028C187.122 157.964 187.542 156.152 188.382 154.592C189.222 153.032 190.398 151.832 191.91 150.992C193.422 150.152 195.162 149.732 197.13 149.732C199.026 149.732 200.718 150.14 202.206 150.956C203.718 151.772 204.882 152.936 205.698 154.448C206.538 155.936 206.958 157.652 206.958 159.596ZM201.738 158.156C201.714 156.86 201.246 155.828 200.334 155.06C199.422 154.268 198.306 153.872 196.986 153.872C195.738 153.872 194.682 154.256 193.818 155.024C192.978 155.768 192.462 156.812 192.27 158.156H201.738ZM216.144 164.708L211.932 174.824H208.692L211.032 164.708H216.144ZM233.395 144.872V170H228.355V144.872H233.395ZM239.383 144.872H244.675L240.787 153.944H237.331L239.383 144.872ZM273.057 149.768C275.505 149.768 277.473 150.524 278.961 152.036C280.473 153.524 281.229 155.612 281.229 158.3V170H276.189V158.984C276.189 157.424 275.793 156.236 275.001 155.42C274.209 154.58 273.129 154.16 271.761 154.16C270.393 154.16 269.301 154.58 268.485 155.42C267.693 156.236 267.297 157.424 267.297 158.984V170H262.257V158.984C262.257 157.424 261.861 156.236 261.069 155.42C260.277 154.58 259.197 154.16 257.829 154.16C256.437 154.16 255.333 154.58 254.517 155.42C253.725 156.236 253.329 157.424 253.329 158.984V170H248.289V150.056H253.329V152.468C253.977 151.628 254.805 150.968 255.813 150.488C256.845 150.008 257.973 149.768 259.197 149.768C260.757 149.768 262.149 150.104 263.373 150.776C264.597 151.424 265.545 152.36 266.217 153.584C266.865 152.432 267.801 151.508 269.025 150.812C270.273 150.116 271.617 149.768 273.057 149.768ZM307.549 170L302.005 160.208H299.629V170H294.589V144.872H304.021C305.965 144.872 307.621 145.22 308.989 145.916C310.357 146.588 311.377 147.512 312.049 148.688C312.745 149.84 313.093 151.136 313.093 152.576C313.093 154.232 312.613 155.732 311.653 157.076C310.693 158.396 309.265 159.308 307.369 159.812L313.381 170H307.549ZM299.629 156.428H303.841C305.209 156.428 306.229 156.104 306.901 155.456C307.573 154.784 307.909 153.86 307.909 152.684C307.909 151.532 307.573 150.644 306.901 150.02C306.229 149.372 305.209 149.048 303.841 149.048H299.629V156.428ZM336.192 159.596C336.192 160.316 336.144 160.964 336.048 161.54H321.468C321.588 162.98 322.092 164.108 322.98 164.924C323.868 165.74 324.96 166.148 326.256 166.148C328.128 166.148 329.46 165.344 330.252 163.736H335.688C335.112 165.656 334.008 167.24 332.376 168.488C330.744 169.712 328.74 170.324 326.364 170.324C324.444 170.324 322.716 169.904 321.18 169.064C319.668 168.2 318.48 166.988 317.616 165.428C316.776 163.868 316.356 162.068 316.356 160.028C316.356 157.964 316.776 156.152 317.616 154.592C318.456 153.032 319.632 151.832 321.144 150.992C322.656 150.152 324.396 149.732 326.364 149.732C328.26 149.732 329.952 150.14 331.44 150.956C332.952 151.772 334.116 152.936 334.932 154.448C335.772 155.936 336.192 157.652 336.192 159.596ZM330.972 158.156C330.948 156.86 330.48 155.828 329.568 155.06C328.656 154.268 327.54 153.872 326.22 153.872C324.972 153.872 323.916 154.256 323.052 155.024C322.212 155.768 321.696 156.812 321.504 158.156H330.972ZM350.923 149.768C353.299 149.768 355.219 150.524 356.683 152.036C358.147 153.524 358.879 155.612 358.879 158.3V170H353.839V158.984C353.839 157.4 353.443 156.188 352.651 155.348C351.859 154.484 350.779 154.052 349.411 154.052C348.019 154.052 346.915 154.484 346.099 155.348C345.307 156.188 344.911 157.4 344.911 158.984V170H339.871V150.056H344.911V152.54C345.583 151.676 346.435 151.004 347.467 150.524C348.523 150.02 349.675 149.768 350.923 149.768ZM362.375 159.956C362.375 157.94 362.771 156.152 363.563 154.592C364.38 153.032 365.472 151.832 366.84 150.992C368.232 150.152 369.78 149.732 371.484 149.732C372.972 149.732 374.268 150.032 375.372 150.632C376.5 151.232 377.4 151.988 378.072 152.9V150.056H383.148V170H378.072V167.084C377.424 168.02 376.524 168.8 375.372 169.424C374.244 170.024 372.936 170.324 371.448 170.324C369.768 170.324 368.232 169.892 366.84 169.028C365.472 168.164 364.38 166.952 363.563 165.392C362.771 163.808 362.375 161.996 362.375 159.956ZM378.072 160.028C378.072 158.804 377.832 157.76 377.352 156.896C376.872 156.008 376.224 155.336 375.408 154.88C374.592 154.4 373.716 154.16 372.78 154.16C371.844 154.16 370.98 154.388 370.188 154.844C369.396 155.3 368.748 155.972 368.244 156.86C367.764 157.724 367.524 158.756 367.524 159.956C367.524 161.156 367.764 162.212 368.244 163.124C368.748 164.012 369.396 164.696 370.188 165.176C371.004 165.656 371.868 165.896 372.78 165.896C373.716 165.896 374.592 165.668 375.408 165.212C376.224 164.732 376.872 164.06 377.352 163.196C377.832 162.308 378.072 161.252 378.072 160.028ZM393.938 154.196V163.844C393.938 164.516 394.094 165.008 394.406 165.32C394.742 165.608 395.294 165.752 396.062 165.752H398.402V170H395.234C390.986 170 388.862 167.936 388.862 163.808V154.196H386.486V150.056H388.862V145.124H393.938V150.056H398.402V154.196H393.938ZM410.883 170.324C408.963 170.324 407.235 169.904 405.699 169.064C404.163 168.2 402.951 166.988 402.063 165.428C401.199 163.868 400.767 162.068 400.767 160.028C400.767 157.988 401.211 156.188 402.099 154.628C403.011 153.068 404.247 151.868 405.807 151.028C407.367 150.164 409.107 149.732 411.027 149.732C412.947 149.732 414.687 150.164 416.247 151.028C417.807 151.868 419.031 153.068 419.919 154.628C420.831 156.188 421.287 157.988 421.287 160.028C421.287 162.068 420.819 163.868 419.883 165.428C418.971 166.988 417.723 168.2 416.139 169.064C414.579 169.904 412.827 170.324 410.883 170.324ZM410.883 165.932C411.795 165.932 412.647 165.716 413.439 165.284C414.255 164.828 414.903 164.156 415.383 163.268C415.863 162.38 416.103 161.3 416.103 160.028C416.103 158.132 415.599 156.68 414.591 155.672C413.607 154.64 412.395 154.124 410.955 154.124C409.515 154.124 408.303 154.64 407.319 155.672C406.359 156.68 405.879 158.132 405.879 160.028C405.879 161.924 406.347 163.388 407.283 164.42C408.243 165.428 409.443 165.932 410.883 165.932ZM455.054 170H450.014L438.602 152.756V170H433.562V144.836H438.602L450.014 162.116V144.836H455.054V170ZM478.863 150.056V170H473.787V167.48C473.139 168.344 472.287 169.028 471.231 169.532C470.199 170.012 469.071 170.252 467.847 170.252C466.287 170.252 464.907 169.928 463.707 169.28C462.507 168.608 461.559 167.636 460.863 166.364C460.191 165.068 459.855 163.532 459.855 161.756V150.056H464.895V161.036C464.895 162.62 465.291 163.844 466.083 164.708C466.875 165.548 467.955 165.968 469.323 165.968C470.715 165.968 471.807 165.548 472.599 164.708C473.391 163.844 473.787 162.62 473.787 161.036V150.056H478.863ZM494.888 149.768C497.264 149.768 499.184 150.524 500.648 152.036C502.112 153.524 502.844 155.612 502.844 158.3V170H497.804V158.984C497.804 157.4 497.408 156.188 496.616 155.348C495.824 154.484 494.744 154.052 493.376 154.052C491.984 154.052 490.88 154.484 490.064 155.348C489.272 156.188 488.876 157.4 488.876 158.984V170H483.836V150.056H488.876V152.54C489.548 151.676 490.4 151.004 491.432 150.524C492.488 150.02 493.64 149.768 494.888 149.768ZM526.176 159.596C526.176 160.316 526.128 160.964 526.032 161.54H511.452C511.572 162.98 512.076 164.108 512.964 164.924C513.852 165.74 514.944 166.148 516.24 166.148C518.112 166.148 519.444 165.344 520.236 163.736H525.672C525.096 165.656 523.992 167.24 522.36 168.488C520.728 169.712 518.724 170.324 516.348 170.324C514.428 170.324 512.7 169.904 511.164 169.064C509.652 168.2 508.464 166.988 507.6 165.428C506.76 163.868 506.34 162.068 506.34 160.028C506.34 157.964 506.76 156.152 507.6 154.592C508.44 153.032 509.616 151.832 511.128 150.992C512.64 150.152 514.38 149.732 516.348 149.732C518.244 149.732 519.936 150.14 521.424 150.956C522.936 151.772 524.1 152.936 524.916 154.448C525.756 155.936 526.176 157.652 526.176 159.596ZM520.956 158.156C520.932 156.86 520.464 155.828 519.552 155.06C518.64 154.268 517.524 153.872 516.204 153.872C514.956 153.872 513.9 154.256 513.036 155.024C512.196 155.768 511.68 156.812 511.488 158.156H520.956ZM537.487 170.324C535.855 170.324 534.391 170.036 533.095 169.46C531.799 168.86 530.767 168.056 529.999 167.048C529.255 166.04 528.847 164.924 528.775 163.7H533.851C533.947 164.468 534.319 165.104 534.967 165.608C535.639 166.112 536.467 166.364 537.451 166.364C538.411 166.364 539.155 166.172 539.683 165.788C540.235 165.404 540.511 164.912 540.511 164.312C540.511 163.664 540.175 163.184 539.503 162.872C538.855 162.536 537.811 162.176 536.371 161.792C534.883 161.432 533.659 161.06 532.699 160.676C531.763 160.292 530.947 159.704 530.251 158.912C529.579 158.12 529.243 157.052 529.243 155.708C529.243 154.604 529.555 153.596 530.179 152.684C530.827 151.772 531.739 151.052 532.915 150.524C534.115 149.996 535.519 149.732 537.127 149.732C539.503 149.732 541.399 150.332 542.815 151.532C544.231 152.708 545.011 154.304 545.155 156.32H540.331C540.259 155.528 539.923 154.904 539.323 154.448C538.747 153.968 537.967 153.728 536.983 153.728C536.071 153.728 535.363 153.896 534.859 154.232C534.379 154.568 534.139 155.036 534.139 155.636C534.139 156.308 534.475 156.824 535.147 157.184C535.819 157.52 536.863 157.868 538.279 158.228C539.719 158.588 540.907 158.96 541.843 159.344C542.779 159.728 543.583 160.328 544.255 161.144C544.951 161.936 545.311 162.992 545.335 164.312C545.335 165.464 545.011 166.496 544.363 167.408C543.739 168.32 542.827 169.04 541.627 169.568C540.451 170.072 539.071 170.324 537.487 170.324Z" fill="white"/>
<path d="M76.68 190.1V191.96H70.78V196.06H75.38V197.92H70.78V204H68.5V190.1H76.68ZM81.073 194.58C81.4063 194.02 81.8463 193.587 82.393 193.28C82.953 192.96 83.613 192.8 84.373 192.8V195.16H83.793C82.8996 195.16 82.2196 195.387 81.753 195.84C81.2996 196.293 81.073 197.08 81.073 198.2V204H78.793V192.98H81.073V194.58ZM91.2488 204.18C90.2088 204.18 89.2688 203.947 88.4288 203.48C87.5888 203 86.9288 202.333 86.4488 201.48C85.9688 200.613 85.7288 199.613 85.7288 198.48C85.7288 197.36 85.9754 196.367 86.4688 195.5C86.9621 194.633 87.6354 193.967 88.4888 193.5C89.3421 193.033 90.2954 192.8 91.3488 192.8C92.4021 192.8 93.3554 193.033 94.2088 193.5C95.0621 193.967 95.7354 194.633 96.2288 195.5C96.7221 196.367 96.9688 197.36 96.9688 198.48C96.9688 199.6 96.7154 200.593 96.2088 201.46C95.7021 202.327 95.0088 203 94.1288 203.48C93.2621 203.947 92.3021 204.18 91.2488 204.18ZM91.2488 202.2C91.8354 202.2 92.3821 202.06 92.8888 201.78C93.4088 201.5 93.8288 201.08 94.1488 200.52C94.4688 199.96 94.6288 199.28 94.6288 198.48C94.6288 197.68 94.4754 197.007 94.1688 196.46C93.8621 195.9 93.4554 195.48 92.9488 195.2C92.4421 194.92 91.8954 194.78 91.3088 194.78C90.7221 194.78 90.1754 194.92 89.6688 195.2C89.1754 195.48 88.7821 195.9 88.4888 196.46C88.1954 197.007 88.0488 197.68 88.0488 198.48C88.0488 199.667 88.3488 200.587 88.9488 201.24C89.5621 201.88 90.3288 202.2 91.2488 202.2ZM104.783 192.8C105.649 192.8 106.423 192.98 107.103 193.34C107.796 193.7 108.336 194.233 108.723 194.94C109.109 195.647 109.303 196.5 109.303 197.5V204H107.043V197.84C107.043 196.853 106.796 196.1 106.303 195.58C105.809 195.047 105.136 194.78 104.283 194.78C103.429 194.78 102.749 195.047 102.243 195.58C101.749 196.1 101.503 196.853 101.503 197.84V204H99.2227V192.98H101.503V194.24C101.876 193.787 102.349 193.433 102.923 193.18C103.509 192.927 104.129 192.8 104.783 192.8ZM114.871 194.84V200.94C114.871 201.353 114.964 201.653 115.151 201.84C115.351 202.013 115.684 202.1 116.151 202.1H117.551V204H115.751C114.724 204 113.938 203.76 113.391 203.28C112.844 202.8 112.571 202.02 112.571 200.94V194.84H111.271V192.98H112.571V190.24H114.871V192.98H117.551V194.84H114.871ZM128.112 195.8V197.72H119.892V195.8H128.112ZM141.452 198.22C141.452 198.633 141.425 199.007 141.372 199.34H132.952C133.018 200.22 133.345 200.927 133.932 201.46C134.518 201.993 135.238 202.26 136.092 202.26C137.318 202.26 138.185 201.747 138.692 200.72H141.152C140.818 201.733 140.212 202.567 139.332 203.22C138.465 203.86 137.385 204.18 136.092 204.18C135.038 204.18 134.092 203.947 133.252 203.48C132.425 203 131.772 202.333 131.292 201.48C130.825 200.613 130.592 199.613 130.592 198.48C130.592 197.347 130.818 196.353 131.272 195.5C131.738 194.633 132.385 193.967 133.212 193.5C134.052 193.033 135.012 192.8 136.092 192.8C137.132 192.8 138.058 193.027 138.872 193.48C139.685 193.933 140.318 194.573 140.772 195.4C141.225 196.213 141.452 197.153 141.452 198.22ZM139.072 197.5C139.058 196.66 138.758 195.987 138.172 195.48C137.585 194.973 136.858 194.72 135.992 194.72C135.205 194.72 134.532 194.973 133.972 195.48C133.412 195.973 133.078 196.647 132.972 197.5H139.072ZM149.255 192.8C150.122 192.8 150.895 192.98 151.575 193.34C152.269 193.7 152.809 194.233 153.195 194.94C153.582 195.647 153.775 196.5 153.775 197.5V204H151.515V197.84C151.515 196.853 151.269 196.1 150.775 195.58C150.282 195.047 149.609 194.78 148.755 194.78C147.902 194.78 147.222 195.047 146.715 195.58C146.222 196.1 145.975 196.853 145.975 197.84V204H143.695V192.98H145.975V194.24C146.349 193.787 146.822 193.433 147.395 193.18C147.982 192.927 148.602 192.8 149.255 192.8ZM155.924 198.44C155.924 197.333 156.15 196.353 156.604 195.5C157.07 194.647 157.697 193.987 158.484 193.52C159.284 193.04 160.17 192.8 161.144 192.8C161.864 192.8 162.57 192.96 163.264 193.28C163.97 193.587 164.53 194 164.944 194.52V189.2H167.244V204H164.944V202.34C164.57 202.873 164.05 203.313 163.384 203.66C162.73 204.007 161.977 204.18 161.124 204.18C160.164 204.18 159.284 203.94 158.484 203.46C157.697 202.967 157.07 202.287 156.604 201.42C156.15 200.54 155.924 199.547 155.924 198.44ZM164.944 198.48C164.944 197.72 164.784 197.06 164.464 196.5C164.157 195.94 163.75 195.513 163.244 195.22C162.737 194.927 162.19 194.78 161.604 194.78C161.017 194.78 160.47 194.927 159.964 195.22C159.457 195.5 159.044 195.92 158.724 196.48C158.417 197.027 158.264 197.68 158.264 198.44C158.264 199.2 158.417 199.867 158.724 200.44C159.044 201.013 159.457 201.453 159.964 201.76C160.484 202.053 161.03 202.2 161.604 202.2C162.19 202.2 162.737 202.053 163.244 201.76C163.75 201.467 164.157 201.04 164.464 200.48C164.784 199.907 164.944 199.24 164.944 198.48ZM179.974 190.1C181.454 190.1 182.747 190.387 183.854 190.96C184.974 191.52 185.834 192.333 186.434 193.4C187.047 194.453 187.354 195.687 187.354 197.1C187.354 198.513 187.047 199.74 186.434 200.78C185.834 201.82 184.974 202.62 183.854 203.18C182.747 203.727 181.454 204 179.974 204H175.434V190.1H179.974ZM179.974 202.14C181.6 202.14 182.847 201.7 183.714 200.82C184.58 199.94 185.014 198.7 185.014 197.1C185.014 195.487 184.58 194.227 183.714 193.32C182.847 192.413 181.6 191.96 179.974 191.96H177.714V202.14H179.974ZM199.713 198.22C199.713 198.633 199.687 199.007 199.633 199.34H191.213C191.28 200.22 191.607 200.927 192.193 201.46C192.78 201.993 193.5 202.26 194.353 202.26C195.58 202.26 196.447 201.747 196.953 200.72H199.413C199.08 201.733 198.473 202.567 197.593 203.22C196.727 203.86 195.647 204.18 194.353 204.18C193.3 204.18 192.353 203.947 191.513 203.48C190.687 203 190.033 202.333 189.553 201.48C189.087 200.613 188.853 199.613 188.853 198.48C188.853 197.347 189.08 196.353 189.533 195.5C190 194.633 190.647 193.967 191.473 193.5C192.313 193.033 193.273 192.8 194.353 192.8C195.393 192.8 196.32 193.027 197.133 193.48C197.947 193.933 198.58 194.573 199.033 195.4C199.487 196.213 199.713 197.153 199.713 198.22ZM197.333 197.5C197.32 196.66 197.02 195.987 196.433 195.48C195.847 194.973 195.12 194.72 194.253 194.72C193.467 194.72 192.793 194.973 192.233 195.48C191.673 195.973 191.34 196.647 191.233 197.5H197.333ZM206.217 201.96L209.337 192.98H211.757L207.557 204H204.837L200.657 192.98H203.097L206.217 201.96ZM223.58 198.22C223.58 198.633 223.554 199.007 223.5 199.34H215.08C215.147 200.22 215.474 200.927 216.06 201.46C216.647 201.993 217.367 202.26 218.22 202.26C219.447 202.26 220.314 201.747 220.82 200.72H223.28C222.947 201.733 222.34 202.567 221.46 203.22C220.594 203.86 219.514 204.18 218.22 204.18C217.167 204.18 216.22 203.947 215.38 203.48C214.554 203 213.9 202.333 213.42 201.48C212.954 200.613 212.72 199.613 212.72 198.48C212.72 197.347 212.947 196.353 213.4 195.5C213.867 194.633 214.514 193.967 215.34 193.5C216.18 193.033 217.14 192.8 218.22 192.8C219.26 192.8 220.187 193.027 221 193.48C221.814 193.933 222.447 194.573 222.9 195.4C223.354 196.213 223.58 197.153 223.58 198.22ZM221.2 197.5C221.187 196.66 220.887 195.987 220.3 195.48C219.714 194.973 218.987 194.72 218.12 194.72C217.334 194.72 216.66 194.973 216.1 195.48C215.54 195.973 215.207 196.647 215.1 197.5H221.2ZM228.104 189.2V204H225.824V189.2H228.104ZM235.878 204.18C234.838 204.18 233.898 203.947 233.058 203.48C232.218 203 231.558 202.333 231.078 201.48C230.598 200.613 230.358 199.613 230.358 198.48C230.358 197.36 230.604 196.367 231.098 195.5C231.591 194.633 232.264 193.967 233.118 193.5C233.971 193.033 234.924 192.8 235.978 192.8C237.031 192.8 237.984 193.033 238.838 193.5C239.691 193.967 240.364 194.633 240.858 195.5C241.351 196.367 241.598 197.36 241.598 198.48C241.598 199.6 241.344 200.593 240.838 201.46C240.331 202.327 239.638 203 238.758 203.48C237.891 203.947 236.931 204.18 235.878 204.18ZM235.878 202.2C236.464 202.2 237.011 202.06 237.518 201.78C238.038 201.5 238.458 201.08 238.778 200.52C239.098 199.96 239.258 199.28 239.258 198.48C239.258 197.68 239.104 197.007 238.798 196.46C238.491 195.9 238.084 195.48 237.578 195.2C237.071 194.92 236.524 194.78 235.938 194.78C235.351 194.78 234.804 194.92 234.298 195.2C233.804 195.48 233.411 195.9 233.118 196.46C232.824 197.007 232.678 197.68 232.678 198.48C232.678 199.667 232.978 200.587 233.578 201.24C234.191 201.88 234.958 202.2 235.878 202.2ZM246.132 194.6C246.518 194.093 247.045 193.667 247.712 193.32C248.378 192.973 249.132 192.8 249.972 192.8C250.932 192.8 251.805 193.04 252.592 193.52C253.392 193.987 254.018 194.647 254.472 195.5C254.925 196.353 255.152 197.333 255.152 198.44C255.152 199.547 254.925 200.54 254.472 201.42C254.018 202.287 253.392 202.967 252.592 203.46C251.805 203.94 250.932 204.18 249.972 204.18C249.132 204.18 248.385 204.013 247.732 203.68C247.078 203.333 246.545 202.907 246.132 202.4V209.24H243.852V192.98H246.132V194.6ZM252.832 198.44C252.832 197.68 252.672 197.027 252.352 196.48C252.045 195.92 251.632 195.5 251.112 195.22C250.605 194.927 250.058 194.78 249.472 194.78C248.898 194.78 248.352 194.927 247.832 195.22C247.325 195.513 246.912 195.94 246.592 196.5C246.285 197.06 246.132 197.72 246.132 198.48C246.132 199.24 246.285 199.907 246.592 200.48C246.912 201.04 247.325 201.467 247.832 201.76C248.352 202.053 248.898 202.2 249.472 202.2C250.058 202.2 250.605 202.053 251.112 201.76C251.632 201.453 252.045 201.013 252.352 200.44C252.672 199.867 252.832 199.2 252.832 198.44ZM267.506 198.22C267.506 198.633 267.48 199.007 267.426 199.34H259.006C259.073 200.22 259.4 200.927 259.986 201.46C260.573 201.993 261.293 202.26 262.146 202.26C263.373 202.26 264.24 201.747 264.746 200.72H267.206C266.873 201.733 266.266 202.567 265.386 203.22C264.52 203.86 263.44 204.18 262.146 204.18C261.093 204.18 260.146 203.947 259.306 203.48C258.48 203 257.826 202.333 257.346 201.48C256.88 200.613 256.646 199.613 256.646 198.48C256.646 197.347 256.873 196.353 257.326 195.5C257.793 194.633 258.44 193.967 259.266 193.5C260.106 193.033 261.066 192.8 262.146 192.8C263.186 192.8 264.113 193.027 264.926 193.48C265.74 193.933 266.373 194.573 266.826 195.4C267.28 196.213 267.506 197.153 267.506 198.22ZM265.126 197.5C265.113 196.66 264.813 195.987 264.226 195.48C263.64 194.973 262.913 194.72 262.046 194.72C261.26 194.72 260.586 194.973 260.026 195.48C259.466 195.973 259.133 196.647 259.026 197.5H265.126ZM272.03 194.58C272.363 194.02 272.803 193.587 273.35 193.28C273.91 192.96 274.57 192.8 275.33 192.8V195.16H274.75C273.857 195.16 273.177 195.387 272.71 195.84C272.257 196.293 272.03 197.08 272.03 198.2V204H269.75V192.98H272.03V194.58Z" fill="#154EFE"/>
</svg>
