<svg width="1415" height="112" viewBox="0 0 1415 112" fill="none" xmlns="http://www.w3.org/2000/svg">
<rect width="1415" height="112" rx="10" fill="black"/>
<rect x="5" y="5" width="1405" height="102" rx="10" fill="#154EFE"/>
<rect x="7" y="7" width="1401" height="98" rx="10" fill="black"/>
<path d="M1225.02 50.672L1225 26.672H1230.86L1230.88 28.808C1231.7 27.944 1232.67 27.264 1233.81 26.768C1234.94 26.256 1236.17 26 1237.48 26C1238.36 26 1239.24 26.128 1240.12 26.384L1237.82 32.288C1237.21 32.048 1236.6 31.928 1235.99 31.928C1235.05 31.928 1234.18 32.16 1233.4 32.624C1232.63 33.072 1232.02 33.688 1231.55 34.472C1231.1 35.24 1230.88 36.096 1230.88 37.04V50.672H1225.02Z" fill="white"/>
<path d="M1246.98 59.504V74.672H1241.13V61.04C1241.13 60.096 1240.9 59.24 1240.43 58.472C1239.97 57.688 1239.34 57.072 1238.56 56.624C1237.79 56.16 1236.94 55.928 1235.99 55.928C1235.05 55.928 1234.18 56.16 1233.4 56.624C1232.63 57.072 1232.02 57.688 1231.55 58.472C1231.1 59.24 1230.88 60.096 1230.88 61.04V74.672H1225.02L1225 50.672H1230.86L1230.88 52.808C1231.7 51.944 1232.67 51.264 1233.81 50.768C1234.94 50.256 1236.17 50 1237.48 50C1239.22 50 1240.82 50.432 1242.26 51.296C1243.7 52.144 1244.84 53.288 1245.69 54.728C1246.55 56.152 1246.98 57.744 1246.98 59.504Z" fill="#154EFE"/>
<path d="M1273.75 59.504V74.672H1267.89V61.04C1267.89 60.096 1267.66 59.24 1267.2 58.472C1266.73 57.688 1266.11 57.072 1265.33 56.624C1264.56 56.16 1263.7 55.928 1262.76 55.928C1261.81 55.928 1260.95 56.16 1260.17 56.624C1259.4 57.072 1258.78 57.688 1258.32 58.472C1257.87 59.24 1257.65 60.096 1257.65 61.04V74.672H1251.79L1251.77 50.672H1257.62L1257.65 52.808C1258.46 51.944 1259.44 51.264 1260.57 50.768C1261.71 50.256 1262.93 50 1264.25 50C1265.99 50 1267.58 50.432 1269.02 51.296C1270.46 52.144 1271.61 53.288 1272.45 54.728C1273.32 56.152 1273.75 57.744 1273.75 59.504Z" fill="#154EFE"/>
<path d="M1291.44 50C1293.78 50 1295.9 50.568 1297.82 51.704C1299.74 52.84 1301.27 54.368 1302.41 56.288C1303.54 58.192 1304.11 60.304 1304.11 62.624C1304.11 64.368 1303.78 66.008 1303.13 67.544C1302.47 69.08 1301.56 70.432 1300.39 71.6C1299.24 72.752 1297.9 73.656 1296.36 74.312C1294.84 74.968 1293.2 75.296 1291.44 75.296C1289.94 75.296 1288.6 74.96 1287.43 74.288C1286.28 73.6 1285.31 72.712 1284.53 71.624V74.672H1278.67V38.672H1284.53V53.672C1285.31 52.584 1286.28 51.704 1287.43 51.032C1288.6 50.344 1289.94 50 1291.44 50ZM1291.37 69.632C1292.62 69.632 1293.74 69.32 1294.75 68.696C1295.78 68.056 1296.59 67.208 1297.2 66.152C1297.81 65.096 1298.11 63.92 1298.11 62.624C1298.11 61.344 1297.81 60.176 1297.2 59.12C1296.59 58.048 1295.78 57.2 1294.75 56.576C1293.73 55.952 1292.6 55.64 1291.37 55.64C1290.15 55.64 1289.06 55.96 1288.1 56.6C1287.14 57.224 1286.39 58.072 1285.85 59.144C1285.3 60.2 1285.03 61.36 1285.03 62.624C1285.03 63.92 1285.3 65.104 1285.85 66.176C1286.39 67.232 1287.14 68.072 1288.1 68.696C1289.06 69.32 1290.15 69.632 1291.37 69.632Z" fill="#154EFE"/>
<path d="M1313.73 86.672H1307.88V50.672H1313.73V53.72C1314.51 52.632 1315.47 51.752 1316.61 51.08C1317.76 50.392 1319.11 50.048 1320.64 50.048C1322.4 50.048 1324.04 50.376 1325.56 51.032C1327.08 51.688 1328.42 52.6 1329.57 53.768C1330.74 54.92 1331.64 56.256 1332.28 57.776C1332.94 59.296 1333.27 60.928 1333.27 62.672C1333.27 64.416 1332.94 66.056 1332.28 67.592C1331.64 69.128 1330.74 70.48 1329.57 71.648C1328.42 72.8 1327.08 73.704 1325.56 74.36C1324.04 75.016 1322.4 75.344 1320.64 75.344C1319.11 75.344 1317.76 75.008 1316.61 74.336C1315.47 73.648 1314.51 72.76 1313.73 71.672V86.672ZM1320.57 55.688C1319.35 55.688 1318.27 56.008 1317.31 56.648C1316.35 57.272 1315.6 58.112 1315.05 59.168C1314.51 60.224 1314.24 61.392 1314.24 62.672C1314.24 63.952 1314.51 65.128 1315.05 66.2C1315.6 67.256 1316.35 68.104 1317.31 68.744C1318.27 69.368 1319.35 69.68 1320.57 69.68C1321.8 69.68 1322.93 69.368 1323.96 68.744C1324.98 68.12 1325.79 67.28 1326.4 66.224C1327.01 65.152 1327.32 63.968 1327.32 62.672C1327.32 61.392 1327.01 60.224 1326.4 59.168C1325.79 58.112 1324.98 57.272 1323.96 56.648C1322.95 56.008 1321.82 55.688 1320.57 55.688Z" fill="#154EFE"/>
<path d="M88.322 68.468C86.906 68.468 85.55 68.246 84.254 67.802C82.97 67.358 81.842 66.716 80.87 65.876C79.91 65.036 79.22 64.04 78.8 62.888L83.462 61.16C83.606 61.568 83.906 61.952 84.362 62.312C84.818 62.66 85.388 62.948 86.072 63.176C86.756 63.392 87.506 63.5 88.322 63.5C89.102 63.5 89.834 63.386 90.518 63.158C91.214 62.918 91.772 62.588 92.192 62.168C92.624 61.748 92.84 61.256 92.84 60.692C92.84 60.128 92.618 59.66 92.174 59.288C91.73 58.916 91.16 58.622 90.464 58.406C89.768 58.178 89.054 58.004 88.322 57.884C86.51 57.62 84.884 57.194 83.444 56.606C82.016 56.006 80.888 55.184 80.06 54.14C79.232 53.084 78.818 51.746 78.818 50.126C78.818 48.566 79.256 47.204 80.132 46.04C81.02 44.876 82.184 43.97 83.624 43.322C85.076 42.674 86.642 42.35 88.322 42.35C89.714 42.35 91.058 42.572 92.354 43.016C93.65 43.46 94.778 44.102 95.738 44.942C96.71 45.782 97.406 46.79 97.826 47.966L93.164 49.658C93.02 49.25 92.72 48.872 92.264 48.524C91.808 48.176 91.238 47.894 90.554 47.678C89.87 47.462 89.126 47.354 88.322 47.354C87.554 47.342 86.822 47.456 86.126 47.696C85.442 47.936 84.878 48.266 84.434 48.686C84.002 49.106 83.786 49.586 83.786 50.126C83.786 50.834 83.99 51.368 84.398 51.728C84.818 52.088 85.37 52.346 86.054 52.502C86.738 52.658 87.494 52.796 88.322 52.916C90.026 53.168 91.598 53.618 93.038 54.266C94.478 54.902 95.63 55.754 96.494 56.822C97.37 57.878 97.808 59.168 97.808 60.692C97.808 62.252 97.37 63.614 96.494 64.778C95.618 65.942 94.46 66.848 93.02 67.496C91.58 68.144 90.014 68.468 88.322 68.468ZM111.1 54.968H107.86V68H102.892V54.968H100.408V50H102.892V44.348H107.86V50H111.1V54.968ZM127.177 50H132.145V68H127.159L126.925 66.128C126.457 66.824 125.857 67.388 125.125 67.82C124.393 68.252 123.535 68.468 122.551 68.468C121.207 68.468 119.953 68.216 118.789 67.712C117.625 67.208 116.599 66.512 115.711 65.624C114.823 64.736 114.127 63.71 113.623 62.546C113.131 61.37 112.885 60.11 112.885 58.766C112.885 57.482 113.119 56.282 113.587 55.166C114.055 54.05 114.715 53.066 115.567 52.214C116.419 51.362 117.397 50.696 118.501 50.216C119.617 49.736 120.817 49.496 122.101 49.496C123.205 49.496 124.195 49.73 125.071 50.198C125.959 50.666 126.733 51.26 127.393 51.98L127.177 50ZM122.425 63.698C123.241 63.698 123.979 63.488 124.639 63.068C125.299 62.648 125.821 62.084 126.205 61.376C126.589 60.656 126.781 59.864 126.781 59C126.781 58.124 126.589 57.332 126.205 56.624C125.821 55.916 125.299 55.352 124.639 54.932C123.979 54.512 123.241 54.302 122.425 54.302C121.597 54.302 120.847 54.512 120.175 54.932C119.503 55.352 118.969 55.922 118.573 56.642C118.177 57.35 117.979 58.136 117.979 59C117.979 59.864 118.177 60.656 118.573 61.376C118.981 62.084 119.521 62.648 120.193 63.068C120.865 63.488 121.609 63.698 122.425 63.698ZM146.066 62.312L150.53 64.724C149.702 65.852 148.664 66.758 147.416 67.442C146.168 68.126 144.806 68.468 143.33 68.468C141.674 68.468 140.162 68.042 138.794 67.19C137.438 66.338 136.352 65.198 135.536 63.77C134.732 62.33 134.33 60.74 134.33 59C134.33 57.68 134.564 56.45 135.032 55.31C135.5 54.158 136.142 53.15 136.958 52.286C137.786 51.41 138.746 50.726 139.838 50.234C140.93 49.742 142.094 49.496 143.33 49.496C144.806 49.496 146.168 49.838 147.416 50.522C148.664 51.206 149.702 52.124 150.53 53.276L146.066 55.688C145.694 55.292 145.268 54.992 144.788 54.788C144.32 54.572 143.834 54.464 143.33 54.464C142.562 54.464 141.872 54.674 141.26 55.094C140.66 55.514 140.18 56.072 139.82 56.768C139.472 57.452 139.298 58.196 139.298 59C139.298 59.792 139.478 60.53 139.838 61.214C140.198 61.898 140.678 62.45 141.278 62.87C141.89 63.29 142.574 63.5 143.33 63.5C143.846 63.5 144.338 63.392 144.806 63.176C145.274 62.96 145.694 62.672 146.066 62.312ZM169.798 68H164.074L160.258 61.43L158.062 64.04V68H153.094V41H158.062V56.318L163.354 50H169.834L163.66 57.398L169.798 68ZM194.712 50H199.68V68H194.694L194.46 66.128C193.992 66.824 193.392 67.388 192.66 67.82C191.928 68.252 191.07 68.468 190.086 68.468C188.742 68.468 187.488 68.216 186.324 67.712C185.16 67.208 184.134 66.512 183.246 65.624C182.358 64.736 181.662 63.71 181.158 62.546C180.666 61.37 180.42 60.11 180.42 58.766C180.42 57.482 180.654 56.282 181.122 55.166C181.59 54.05 182.25 53.066 183.102 52.214C183.954 51.362 184.932 50.696 186.036 50.216C187.152 49.736 188.352 49.496 189.636 49.496C190.74 49.496 191.73 49.73 192.606 50.198C193.494 50.666 194.268 51.26 194.928 51.98L194.712 50ZM189.96 63.698C190.776 63.698 191.514 63.488 192.174 63.068C192.834 62.648 193.356 62.084 193.74 61.376C194.124 60.656 194.316 59.864 194.316 59C194.316 58.124 194.124 57.332 193.74 56.624C193.356 55.916 192.834 55.352 192.174 54.932C191.514 54.512 190.776 54.302 189.96 54.302C189.132 54.302 188.382 54.512 187.71 54.932C187.038 55.352 186.504 55.922 186.108 56.642C185.712 57.35 185.514 58.136 185.514 59C185.514 59.864 185.712 60.656 186.108 61.376C186.516 62.084 187.056 62.648 187.728 63.068C188.4 63.488 189.144 63.698 189.96 63.698ZM220.019 56.552V68H215.051V57.92C215.051 57.284 214.895 56.714 214.583 56.21C214.283 55.694 213.875 55.286 213.359 54.986C212.855 54.686 212.291 54.536 211.667 54.536C211.043 54.536 210.473 54.686 209.957 54.986C209.441 55.286 209.033 55.694 208.733 56.21C208.433 56.714 208.283 57.284 208.283 57.92V68H203.315L203.297 50H208.265L208.283 51.332C208.883 50.756 209.585 50.306 210.389 49.982C211.205 49.658 212.063 49.496 212.963 49.496C214.271 49.496 215.453 49.814 216.509 50.45C217.577 51.086 218.429 51.938 219.065 53.006C219.701 54.062 220.019 55.244 220.019 56.552ZM236.495 41H241.463V68H236.495V66.092C235.943 66.788 235.259 67.358 234.443 67.802C233.627 68.246 232.697 68.468 231.653 68.468C230.345 68.468 229.121 68.222 227.981 67.73C226.841 67.238 225.833 66.56 224.957 65.696C224.093 64.82 223.415 63.812 222.923 62.672C222.431 61.532 222.185 60.308 222.185 59C222.185 57.692 222.431 56.468 222.923 55.328C223.415 54.188 224.093 53.186 224.957 52.322C225.833 51.446 226.841 50.762 227.981 50.27C229.121 49.778 230.345 49.532 231.653 49.532C232.697 49.532 233.627 49.754 234.443 50.198C235.259 50.63 235.943 51.2 236.495 51.908V41ZM231.725 63.698C232.541 63.698 233.279 63.488 233.939 63.068C234.599 62.648 235.121 62.084 235.505 61.376C235.889 60.656 236.081 59.864 236.081 59C236.081 58.124 235.889 57.332 235.505 56.624C235.121 55.916 234.599 55.352 233.939 54.932C233.279 54.512 232.541 54.302 231.725 54.302C230.897 54.302 230.147 54.512 229.475 54.932C228.803 55.352 228.269 55.922 227.873 56.642C227.477 57.35 227.279 58.136 227.279 59C227.279 59.864 227.477 60.656 227.873 61.376C228.281 62.084 228.821 62.648 229.493 63.068C230.165 63.488 230.909 63.698 231.725 63.698ZM264.241 54.968H261.001V68H256.033V54.968H253.549V50H256.033V44.348H261.001V50H264.241V54.968ZM275.025 68.468C273.369 68.468 271.857 68.042 270.489 67.19C269.133 66.338 268.047 65.198 267.231 63.77C266.427 62.33 266.025 60.74 266.025 59C266.025 57.68 266.259 56.45 266.727 55.31C267.195 54.158 267.837 53.15 268.653 52.286C269.481 51.41 270.441 50.726 271.533 50.234C272.625 49.742 273.789 49.496 275.025 49.496C276.681 49.496 278.187 49.922 279.543 50.774C280.911 51.626 281.997 52.772 282.801 54.212C283.617 55.652 284.025 57.248 284.025 59C284.025 60.308 283.791 61.532 283.323 62.672C282.855 63.812 282.207 64.82 281.379 65.696C280.563 66.56 279.609 67.238 278.517 67.73C277.437 68.222 276.273 68.468 275.025 68.468ZM275.025 63.5C275.793 63.5 276.483 63.296 277.095 62.888C277.707 62.468 278.187 61.916 278.535 61.232C278.883 60.548 279.057 59.804 279.057 59C279.057 58.172 278.871 57.416 278.499 56.732C278.139 56.036 277.653 55.484 277.041 55.076C276.429 54.668 275.757 54.464 275.025 54.464C274.269 54.464 273.585 54.674 272.973 55.094C272.361 55.514 271.875 56.066 271.515 56.75C271.167 57.434 270.993 58.184 270.993 59C270.993 59.852 271.173 60.62 271.533 61.304C271.905 61.976 272.397 62.51 273.009 62.906C273.621 63.302 274.293 63.5 275.025 63.5ZM294.818 68.468C293.162 68.468 291.65 68.042 290.282 67.19C288.926 66.338 287.84 65.198 287.024 63.77C286.22 62.33 285.818 60.74 285.818 59C285.818 57.68 286.052 56.45 286.52 55.31C286.988 54.158 287.63 53.15 288.446 52.286C289.274 51.41 290.234 50.726 291.326 50.234C292.418 49.742 293.582 49.496 294.818 49.496C296.474 49.496 297.98 49.922 299.336 50.774C300.704 51.626 301.79 52.772 302.594 54.212C303.41 55.652 303.818 57.248 303.818 59C303.818 60.308 303.584 61.532 303.116 62.672C302.648 63.812 302 64.82 301.172 65.696C300.356 66.56 299.402 67.238 298.31 67.73C297.23 68.222 296.066 68.468 294.818 68.468ZM294.818 63.5C295.586 63.5 296.276 63.296 296.888 62.888C297.5 62.468 297.98 61.916 298.328 61.232C298.676 60.548 298.85 59.804 298.85 59C298.85 58.172 298.664 57.416 298.292 56.732C297.932 56.036 297.446 55.484 296.834 55.076C296.222 54.668 295.55 54.464 294.818 54.464C294.062 54.464 293.378 54.674 292.766 55.094C292.154 55.514 291.668 56.066 291.308 56.75C290.96 57.434 290.786 58.184 290.786 59C290.786 59.852 290.966 60.62 291.326 61.304C291.698 61.976 292.19 62.51 292.802 62.906C293.414 63.302 294.086 63.5 294.818 63.5ZM306.234 68V41H311.202V68H306.234ZM320.753 68.324C319.829 68.252 318.941 68.06 318.089 67.748C317.237 67.424 316.475 66.992 315.803 66.452C315.143 65.9 314.627 65.24 314.255 64.472L318.431 62.672C318.563 62.864 318.761 63.074 319.025 63.302C319.289 63.518 319.607 63.71 319.979 63.878C320.363 64.046 320.807 64.13 321.311 64.13C321.683 64.13 322.043 64.088 322.391 64.004C322.739 63.908 323.021 63.758 323.237 63.554C323.453 63.338 323.561 63.056 323.561 62.708C323.561 62.324 323.423 62.03 323.147 61.826C322.871 61.622 322.535 61.472 322.139 61.376C321.755 61.268 321.383 61.178 321.023 61.106C319.919 60.914 318.875 60.572 317.891 60.08C316.919 59.576 316.127 58.928 315.515 58.136C314.903 57.344 314.597 56.396 314.597 55.292C314.597 54.08 314.915 53.036 315.551 52.16C316.187 51.272 317.015 50.588 318.035 50.108C319.055 49.628 320.159 49.388 321.347 49.388C322.751 49.388 324.053 49.682 325.253 50.27C326.453 50.858 327.419 51.686 328.151 52.754L324.227 55.076C324.071 54.848 323.867 54.632 323.615 54.428C323.375 54.212 323.093 54.032 322.769 53.888C322.457 53.732 322.121 53.642 321.761 53.618C321.293 53.582 320.867 53.612 320.483 53.708C320.099 53.792 319.793 53.954 319.565 54.194C319.349 54.434 319.241 54.758 319.241 55.166C319.241 55.562 319.415 55.856 319.763 56.048C320.111 56.228 320.513 56.366 320.969 56.462C321.425 56.546 321.827 56.648 322.175 56.768C323.219 57.104 324.197 57.536 325.109 58.064C326.033 58.58 326.777 59.216 327.341 59.972C327.905 60.728 328.169 61.616 328.133 62.636C328.133 63.824 327.779 64.868 327.071 65.768C326.363 66.656 325.445 67.334 324.317 67.802C323.201 68.258 322.013 68.432 320.753 68.324Z" fill="#144DFF"/>
</svg>
