<svg width="1415" height="127" viewBox="0 0 1415 127" fill="none" xmlns="http://www.w3.org/2000/svg">
<g clip-path="url(#clip0_20_7)">
<path d="M0 0H1415V117C1415 122.523 1410.52 127 1405 127H10C4.47716 127 0 122.523 0 117V0Z" fill="black"/>
<path fill-rule="evenodd" clip-rule="evenodd" d="M112.646 0C128.152 5.45222 143.26 12.0423 157.833 19.7364C206.217 45.2819 247.139 82.1732 276.816 127H328.492C328.492 113.565 339.826 102.653 353.75 102.653C367.688 102.653 379.008 113.578 379.008 127H430.684C469.1 69.0417 526.658 23.9787 594.73 0H534.479C528.205 3.38365 522.036 6.94905 515.98 10.6917C513.16 7.02272 510.213 3.45701 507.144 0H471.848C480.443 7.44874 488.286 15.7167 495.25 24.7C481.708 34.4526 468.832 45.16 456.946 56.7267C445.306 40.7694 429.852 27.7476 411.89 18.7616C393.928 9.77559 373.987 5.08949 353.75 5.0993C333.513 5.08949 313.571 9.77559 295.61 18.7616C277.648 27.7476 262.194 40.7694 250.554 56.7267C238.668 45.16 225.792 34.4526 212.25 24.7C219.253 15.6643 227.102 7.407 235.648 0H200.356C197.287 3.45701 194.34 7.02272 191.52 10.6917C185.497 6.93037 179.358 3.37091 173.104 0H112.646ZM820.146 0C835.652 5.45222 850.76 12.0423 865.333 19.7364C913.717 45.2819 954.639 82.1732 984.316 127H1035.99C1035.99 113.565 1047.33 102.653 1061.25 102.653C1075.19 102.653 1086.51 113.578 1086.51 127H1138.18C1176.6 69.0417 1234.16 23.9787 1302.23 0H1241.98C1235.71 3.38365 1229.54 6.94905 1223.48 10.6917C1220.66 7.02272 1217.71 3.45701 1214.64 0H1179.35C1187.94 7.44874 1195.79 15.7167 1202.75 24.7C1189.21 34.4526 1176.33 45.16 1164.45 56.7267C1152.81 40.7694 1137.35 27.7476 1119.39 18.7616C1101.43 9.77559 1081.49 5.08949 1061.25 5.0993C1041.01 5.08949 1021.07 9.77559 1003.11 18.7616C985.148 27.7476 969.694 40.7694 958.054 56.7267C946.168 45.16 933.292 34.4526 919.75 24.7C926.753 15.6643 934.602 7.407 943.148 0H907.856C904.787 3.45701 901.84 7.02272 899.02 10.6917C892.997 6.93037 886.858 3.37091 880.604 0H820.146ZM707.5 102.653C673.256 102.637 639.571 111.016 609.61 127H707.5H805.39C776.481 111.546 742.988 102.653 707.5 102.653ZM0 102.653V127H97.8897C68.9813 111.546 35.4882 102.653 0 102.653ZM527.087 127C572.962 81.9198 636.75 53.9578 707.5 53.9578C741.107 53.9111 774.383 60.3498 805.368 72.8944C836.353 85.4389 864.419 103.836 887.912 127H921.901C895.865 96.4812 863.131 71.91 826.056 55.0574C788.981 38.2047 748.49 29.4903 707.5 29.5422C666.495 29.4999 625.991 38.218 588.899 55.0694C551.807 71.9208 519.051 96.4867 492.986 127H527.087ZM97.8679 72.8944C128.853 85.4389 156.919 103.836 180.412 127H214.401C188.366 96.4812 155.631 71.91 118.556 55.0574C81.4815 38.2047 40.99 29.4903 0 29.5422V53.9578C33.6067 53.9111 66.8831 60.3498 97.8679 72.8944ZM439.428 75.0998C426.279 89.7942 414.445 105.537 404.053 122.158C402.807 110.135 396.968 98.9883 387.671 90.8838C378.375 82.7794 366.284 78.2961 353.75 78.3052C341.216 78.2961 329.125 82.7794 319.829 90.8838C310.532 98.9883 304.693 110.135 303.447 122.158C293.077 105.564 281.302 89.824 268.242 75.0998C277.339 61.1363 289.964 49.6269 304.934 41.6493C319.904 33.6717 336.729 29.487 353.835 29.487C370.94 29.487 387.766 33.6717 402.736 41.6493C417.706 49.6269 430.331 61.1363 439.428 75.0998ZM1415 127V102.653C1380.76 102.637 1347.07 111.016 1317.11 127H1415ZM1415 53.9578V29.5422C1374 29.4999 1333.49 38.218 1296.4 55.0694C1259.31 71.9208 1226.55 96.4867 1200.49 127H1234.59C1280.46 81.9198 1344.25 53.9578 1415 53.9578ZM1146.93 75.0998C1133.78 89.7942 1121.94 105.537 1111.55 122.158C1110.31 110.135 1104.47 98.9883 1095.17 90.8838C1085.87 82.7794 1073.78 78.2961 1061.25 78.3052C1048.72 78.2961 1036.63 82.7794 1027.33 90.8838C1018.03 98.9883 1012.19 110.135 1010.95 122.158C1000.58 105.564 988.802 89.824 975.741 75.0998C984.839 61.1363 997.464 49.6269 1012.43 41.6493C1027.4 33.6717 1044.23 29.487 1061.33 29.487C1078.44 29.487 1095.27 33.6717 1110.24 41.6493C1125.21 49.6269 1137.83 61.1363 1146.93 75.0998Z" fill="#030C26"/>
<rect x="23" y="20" width="86" height="86" rx="4" fill="black" stroke="#154EFE" stroke-width="2"/>
<path fill-rule="evenodd" clip-rule="evenodd" d="M81.943 51.6857H81.9221H56.6486L57.253 57.5524H81.3416C80.9886 62.6916 79.9204 73.5796 79.5285 78.534L65.9986 82.3425V82.3539L65.9687 82.3683L52.4298 77.6045L51.5023 66.3524H58.1386L58.6083 72.4038L65.9806 75.1524H65.9986L73.3589 72.5127L74.1159 63.419H51.2061C51.0954 62.2428 49.6712 46.9689 49.4229 45.819H82.5354C82.3499 47.755 82.1614 49.7438 81.943 51.6857ZM39.6001 34.0857L44.4053 87.3197L65.9687 92.7524L87.5889 87.2108L92.4001 34.0857H39.6001Z" fill="#144DFF"/>
<rect x="129.857" y="20" width="86" height="86" rx="4" fill="black" stroke="#154EFE" stroke-width="2"/>
<path d="M199.257 34.0857L194.306 87.4266L172.857 93.1714L151.407 87.4266L146.457 34.0857H199.257ZM189.281 44.9317H172.837H156.103L156.903 51.3731H172.837H173.732L172.837 51.7437L157.485 58.104L157.994 64.4003L172.837 64.4481L180.793 64.4732L180.284 72.8685L172.837 74.9539V74.9473L172.776 74.9642L165.585 73.1584L165.149 67.947H165.125H158.455H158.431L159.304 78.0075L172.838 81.9885V81.9813L172.862 81.9885L186.323 78.08L188.069 58.104H172.838H172.8L172.838 58.0878L188.627 51.3731L189.281 44.9317Z" fill="#144DFF"/>
<rect x="236.714" y="20" width="86" height="86" rx="4" fill="black" stroke="#154EFE" stroke-width="2"/>
<g clip-path="url(#clip1_20_7)">
<path d="M252.057 34.0857H308.629V90.6571H252.057V34.0857Z" fill="#144DFF"/>
<path d="M266.932 81.3609L271.261 78.7409C272.096 80.2217 272.856 81.4747 274.678 81.4747C276.425 81.4747 277.527 80.7914 277.527 78.1334V60.0575H282.843V78.2086C282.843 83.7148 279.615 86.2211 274.906 86.2211C270.653 86.2211 268.185 84.0186 266.932 81.3604M285.731 80.7912L290.059 78.285C291.199 80.1459 292.68 81.5129 295.3 81.5129C297.503 81.5129 298.907 80.4115 298.907 78.8925C298.907 77.0698 297.464 76.4241 295.034 75.3612L293.705 74.7911C289.87 73.1587 287.325 71.108 287.325 66.7789C287.325 62.7915 290.363 59.7534 295.11 59.7534C298.49 59.7534 300.92 60.9308 302.667 64.0067L298.527 66.6651C297.616 65.0323 296.629 64.3868 295.11 64.3868C293.553 64.3868 292.566 65.3741 292.566 66.6651C292.566 68.2599 293.553 68.9059 295.831 69.8932L297.16 70.4627C301.679 72.3996 304.223 74.3741 304.223 78.8167C304.223 83.6018 300.464 86.2218 295.414 86.2218C290.477 86.2218 287.287 83.8675 285.73 80.7914" fill="black"/>
</g>
<rect x="343.571" y="20" width="86" height="86" rx="4" fill="black" stroke="#154EFE" stroke-width="2"/>
<path d="M358.914 62.3714V90.6571H387.2H415.486V62.3714V34.0857H387.2H358.914V62.3714Z" fill="#144DFF"/>
<path d="M371.424 62.559L371.406 64.8758H375.088H378.769V75.337V85.7982H381.373H383.977V75.337V64.8758H387.659H391.341V62.6039C391.341 61.3468 391.314 60.2962 391.278 60.2692C391.251 60.2333 386.77 60.2153 381.337 60.2243L371.451 60.2513L371.424 62.559Z" fill="black"/>
<path d="M404.562 60.1855C405.999 60.5447 407.094 61.1822 408.1 62.2239C408.621 62.7806 409.393 63.7953 409.456 64.0377C409.474 64.1096 407.014 65.7618 405.523 66.6867C405.469 66.7226 405.254 66.4892 405.011 66.13C404.284 65.0704 403.52 64.6124 402.353 64.5316C400.638 64.4149 399.534 65.3128 399.543 66.8124C399.543 67.2524 399.605 67.5128 399.785 67.872C400.162 68.6533 400.862 69.1202 403.062 70.072C407.112 71.8141 408.845 72.9635 409.923 74.5977C411.126 76.4206 411.396 79.33 410.578 81.4941C409.68 83.8467 407.454 85.4451 404.32 85.9749C403.35 86.1455 401.051 86.1186 400.009 85.93C397.738 85.5259 395.582 84.4035 394.254 82.9308C393.733 82.3561 392.718 80.8565 392.781 80.7488C392.808 80.7128 393.041 80.5692 393.302 80.4165C393.553 80.2728 394.505 79.7251 395.403 79.2043L397.028 78.2614L397.369 78.7643C397.845 79.4916 398.887 80.4884 399.516 80.8206C401.32 81.7724 403.799 81.6377 405.02 80.5422C405.541 80.0663 405.756 79.5724 405.756 78.8451C405.756 78.1896 405.676 77.9022 405.334 77.4084C404.894 76.7798 403.996 76.25 401.446 75.1455C398.528 73.8884 397.271 73.1071 396.121 71.8679C395.457 71.1496 394.828 70.0002 394.568 69.0394C394.352 68.2402 394.298 66.2377 394.469 65.4296C395.071 62.61 397.199 60.6435 400.27 60.0598C401.267 59.8712 403.583 59.9431 404.562 60.1855Z" fill="black"/>
<rect x="450.429" y="20" width="86" height="86" rx="4" fill="black" stroke="#154EFE" stroke-width="2"/>
<path d="M494.057 90.3625C509.516 90.3625 522.048 77.8305 522.048 62.3714C522.048 46.9124 509.516 34.3804 494.057 34.3804C478.598 34.3804 466.066 46.9124 466.066 62.3714C466.066 77.8305 478.598 90.3625 494.057 90.3625Z" fill="#144DFF"/>
<path d="M509.116 49.9434C508.78 48.5998 507.829 47.4802 506.373 46.6964C503.518 45.1849 498.928 45.1289 494.729 46.6404C492.21 47.5362 487.451 49.5515 483.868 52.8545C480.285 56.2134 479.726 59.1804 480.006 60.3561C480.621 63.603 484.036 65.8983 486.723 67.8017C487.451 68.3055 488.123 68.7534 488.627 69.2012C487.115 69.985 483.029 72.2803 481.909 74.6875C481.069 76.5909 481.461 77.9904 481.797 78.6062C482.133 79.334 482.693 79.8938 483.253 80.0618C483.812 80.2297 484.428 80.2857 485.044 80.2857C487.451 80.2857 489.802 78.9981 491.258 76.8148C492.714 74.6315 492.825 71.7204 492.154 69.929C493.105 69.7051 494.113 69.7051 495.233 69.8171C497.416 70.097 498.48 70.9367 498.984 71.6085C499.543 72.3362 499.655 73.064 499.599 73.5119C499.487 74.3516 498.816 74.8554 498.48 75.0794C498.2 75.2473 497.976 75.4153 498.032 75.7512C498.144 76.199 498.592 76.143 498.76 76.143C499.263 76.0311 501.055 75.1354 501.167 73.12C501.223 71.8884 500.719 70.6568 499.767 69.6491C498.536 68.3615 496.688 67.6897 494.561 67.7457C492.993 67.7457 491.93 67.9137 491.09 68.1936L491.034 68.1376C490.25 67.2979 489.187 66.5141 488.235 65.7304C485.996 64.0509 483.924 62.4274 484.036 60.0202C484.204 56.9971 487.171 54.0301 492.937 51.175C498.032 48.6558 502.174 48.5438 504.358 49.3276C505.253 49.6635 505.869 50.1113 506.093 50.6152C506.541 51.5669 506.373 52.7985 505.589 54.142C504.302 56.3813 501.055 59.1804 496.072 59.7403C493.049 60.0762 491.762 58.7326 491.706 58.6766C491.37 58.2847 491.146 58.0608 490.754 58.2847C490.306 58.5087 490.53 59.1245 490.642 59.3484C490.866 59.9642 491.818 61.0279 493.441 61.5877C494.729 62.0355 498.032 62.3154 502.119 60.7479C506.821 58.8445 510.068 53.8062 509.116 49.9434ZM489.802 73.7918C489.746 73.9037 489.746 74.0157 489.69 74.1277C489.634 74.2396 489.579 74.3516 489.579 74.4636C489.355 74.9674 489.019 75.4712 488.571 75.9191C487.283 77.3187 485.548 77.7105 484.988 77.3746C484.82 77.2627 484.764 77.0947 484.708 76.8708C484.596 76.199 484.988 74.8554 486.164 73.6798C487.563 72.2243 489.523 71.1606 489.97 70.9367C490.138 71.9444 490.082 72.8961 489.802 73.7918Z" fill="black"/>
<rect x="557.286" y="20" width="86" height="86" rx="4" fill="black" stroke="#154EFE" stroke-width="2"/>
<path fill-rule="evenodd" clip-rule="evenodd" d="M582.174 36.6C578.516 36.6 575.809 39.8313 575.93 43.3357C576.046 46.7024 575.895 51.0627 574.807 54.6187C573.716 58.1849 571.871 60.4441 568.857 60.7342V64.0087C571.871 64.2988 573.716 66.558 574.807 70.1245C575.895 73.6801 576.046 78.0406 575.93 81.4073C575.809 84.9112 578.516 88.1429 582.174 88.1429H619.659C623.318 88.1429 626.024 84.9118 625.903 81.4073C625.787 78.0406 625.938 73.6801 627.026 70.1245C628.117 66.558 629.958 64.2988 632.971 64.0087V60.7342C629.958 60.4441 628.117 58.1849 627.026 54.6187C625.938 51.0633 625.787 46.7024 625.903 43.3357C626.024 39.8319 623.318 36.6 619.659 36.6H582.174ZM612.325 68.3279C612.325 73.1534 608.758 76.0798 602.839 76.0798H592.764C592.476 76.0798 592.2 75.9642 591.996 75.7585C591.792 75.5528 591.678 75.274 591.678 74.9831V49.7599C591.678 49.4691 591.792 49.1901 591.996 48.9845C592.2 48.7788 592.476 48.6633 592.764 48.6633H602.782C607.717 48.6633 610.956 51.361 610.956 55.5031C610.956 58.4103 608.777 61.0132 606.001 61.4688V61.6209C609.78 62.0393 612.325 64.68 612.325 68.3279ZM601.741 52.1397H595.996V60.3284H600.834C604.575 60.3284 606.637 58.8085 606.637 56.0915C606.637 53.5456 604.864 52.1397 601.741 52.1397ZM595.996 63.5779V72.6023H601.952C605.846 72.6023 607.909 71.0252 607.909 68.0615C607.909 65.0973 605.789 63.5773 601.702 63.5773L595.996 63.5779Z" fill="#144DFF"/>
<rect x="664.143" y="20" width="86" height="86" rx="4" fill="black" stroke="#154EFE" stroke-width="2"/>
<path d="M737.786 62.3714C737.786 58.0919 732.83 54.4881 724.947 52.2357C726.974 44.3524 726.299 38.271 722.695 36.0186C721.794 35.5681 720.893 35.3429 719.767 35.3429C716.388 35.3429 711.883 37.8205 707.379 42.1C702.874 37.8205 698.594 35.3429 694.99 35.3429C693.864 35.3429 692.963 35.5681 692.062 36.0186C688.684 38.271 688.008 44.3524 689.81 52.2357C682.152 54.4881 676.971 58.3172 676.971 62.3714C676.971 66.651 681.927 70.2548 689.81 72.5072C688.008 80.3905 688.684 86.6972 692.288 88.7243C693.189 89.1748 694.09 89.4 695.216 89.4C698.594 89.4 703.099 86.9224 707.604 82.6429C712.109 86.9224 716.388 89.4 719.992 89.4C721.118 89.4 722.019 89.1748 722.92 88.7243C726.524 86.6972 727.2 80.3905 725.398 72.5072C732.83 70.2548 737.786 66.4257 737.786 62.3714ZM719.767 38.271C720.442 38.271 720.893 38.271 721.118 38.7214C722.92 39.6224 723.596 43.2262 722.92 47.9562C722.695 49.0824 722.47 50.4338 722.244 51.56C719.767 50.8843 717.289 50.6591 714.361 50.2086C712.784 47.9562 711.208 45.9291 709.406 44.1272C713.46 40.2981 717.289 38.271 719.767 38.271ZM715.712 67.1014C714.811 68.6781 713.91 70.2548 712.784 71.6062C710.982 71.8314 709.18 71.8314 707.379 71.8314C705.577 71.8314 703.775 71.8314 701.973 71.6062C701.072 70.2548 700.171 68.6781 699.045 67.1014C698.144 65.5248 697.243 63.9481 696.567 62.3714C697.243 60.7948 698.144 59.2181 699.045 57.6414C699.946 56.0648 701.072 54.4881 701.973 52.9114C703.775 52.6862 705.577 52.6862 707.379 52.6862C709.18 52.6862 710.982 52.6862 712.784 52.9114C713.685 54.2629 714.811 55.8395 715.712 57.6414C716.613 59.2181 717.514 60.7948 718.19 62.3714C717.514 63.9481 716.613 65.5248 715.712 67.1014ZM719.767 65.75C720.442 67.3267 720.893 68.9033 721.343 70.2548C719.767 70.7052 718.19 70.9305 716.613 71.1557C717.064 70.2548 717.74 69.3538 718.19 68.4529C718.866 67.7772 719.316 66.651 719.767 65.75ZM707.379 78.5886C706.252 77.4624 705.126 76.111 704.225 74.7595C705.351 74.7595 706.478 74.7595 707.379 74.7595C708.505 74.7595 709.631 74.7595 710.532 74.7595C709.631 76.111 708.505 77.4624 707.379 78.5886ZM698.144 71.381C696.567 71.1557 694.99 70.9305 693.414 70.48C693.864 68.9033 694.54 67.3267 694.99 65.9752C695.441 66.8762 695.891 67.7771 696.567 68.6781C697.243 69.5791 697.693 70.48 698.144 71.381ZM694.99 58.9929C694.315 57.4162 693.864 55.8395 693.189 54.2629C694.765 53.8124 696.342 53.5872 698.144 53.3619C697.468 54.2629 697.018 55.1638 696.342 56.0648C696.117 57.191 695.666 58.0919 694.99 58.9929ZM707.379 46.1543C708.505 47.2805 709.406 48.6319 710.532 49.7581C709.406 49.7581 708.505 49.7581 707.379 49.7581C706.252 49.7581 705.351 49.7581 704.225 49.7581C705.351 48.6319 706.478 47.2805 707.379 46.1543ZM718.19 56.0648C717.514 55.1638 717.064 54.2629 716.388 53.3619C718.19 53.5872 719.767 53.8124 721.343 54.2629C720.893 55.8395 720.217 57.4162 719.541 58.9929C719.316 58.0919 718.866 57.191 718.19 56.0648ZM692.062 47.731C691.387 43.001 692.062 39.6224 693.864 38.4962C694.315 38.271 694.765 38.0457 695.216 38.0457C697.693 38.0457 701.297 40.0729 705.351 43.9019C703.775 45.7038 701.973 47.731 700.396 49.9833C697.693 50.2086 694.99 50.6591 692.513 51.3348C692.288 50.2086 692.062 48.8572 692.062 47.731ZM687.107 68.4529C682.828 66.651 679.9 64.1733 679.9 62.3714C679.9 60.3443 682.602 58.0919 686.882 56.29C688.008 55.8395 689.134 55.3891 690.486 55.1638C691.161 57.6414 692.062 60.1191 693.414 62.5967C692.288 65.0743 691.387 67.5519 690.711 69.8043C689.36 69.3538 688.233 68.9033 687.107 68.4529ZM693.639 86.2467C691.837 85.3457 691.161 81.7419 691.837 77.0119C692.062 75.8857 692.288 74.5343 692.513 73.1829C694.99 73.6333 697.468 74.0838 700.171 74.3091C701.748 76.5614 703.55 78.5886 705.126 80.3905C701.072 84.2195 697.468 86.2467 694.99 86.2467C694.54 86.4719 694.09 86.2467 693.639 86.2467ZM722.92 77.0119C723.596 81.7419 722.92 85.1205 721.118 86.2467C720.668 86.4719 720.217 86.6972 719.767 86.6972C717.289 86.6972 713.685 84.67 709.631 80.841C711.433 79.0391 713.01 77.0119 714.586 74.7595C717.289 74.5343 719.992 74.0838 722.244 73.6333C722.47 74.5343 722.695 75.6605 722.92 77.0119ZM727.875 68.4529C726.749 68.9033 725.623 69.3538 724.271 69.5791C723.596 67.3267 722.695 64.8491 721.569 62.3714C722.695 59.8938 723.596 57.4162 724.497 54.9386C725.623 55.3891 726.974 55.6143 728.1 56.0648C732.38 57.8667 735.083 60.1191 735.083 62.1462C734.858 64.1733 732.155 66.651 727.875 68.4529Z" fill="#144DFF"/>
<path d="M707.603 68.0024C710.757 68.0024 713.234 65.5248 713.234 62.3715C713.234 59.2181 710.757 56.7405 707.603 56.7405C704.45 56.7405 701.973 59.2181 701.973 62.3715C701.973 65.5248 704.45 68.0024 707.603 68.0024Z" fill="#144DFF"/>
<rect x="771" y="20" width="86" height="86" rx="4" fill="black" stroke="#154EFE" stroke-width="2"/>
<path d="M812.636 34.455C813.479 33.9626 814.521 33.9626 815.364 34.455L837.8 47.5567C838.631 48.0425 839.143 48.9341 839.143 49.8982V76.1017C839.143 77.066 838.631 77.9573 837.8 78.4431L815.364 91.5448C814.521 92.0374 813.479 92.0374 812.636 91.5448L807.027 88.2696C805.735 87.5153 805.299 85.8552 806.052 84.562C806.806 83.2692 808.464 82.8322 809.756 83.5865L814 86.0652L833.728 74.5447V51.4551L814 39.9346L794.273 51.4551V74.5447L798.304 76.8994C799.547 77.2984 801.082 77.396 802.164 76.9175C802.666 76.6955 803.119 76.3341 803.478 75.6886C803.855 75.0091 804.201 73.8782 804.201 72.0357V53.0607C804.201 51.5636 805.413 50.35 806.908 50.35C808.404 50.35 809.616 51.5636 809.616 53.0607V72.0357C809.616 74.5302 809.151 76.6316 808.21 78.3241C807.25 80.0507 805.878 81.2015 804.352 81.8766C801.441 83.164 798.227 82.6363 796.258 81.9283C796.102 81.8723 795.952 81.8022 795.809 81.7187L790.201 78.4431C789.369 77.9573 788.857 77.066 788.857 76.1017V49.8982C788.857 48.9341 789.369 48.0425 790.201 47.5567L812.636 34.455ZM815.019 53.1808C816.452 51.4733 818.689 50.35 821.726 50.35C824.543 50.35 826.69 51.317 828.142 52.8552C829.169 53.9432 829.121 55.6588 828.034 56.6872C826.947 57.7156 825.234 57.6673 824.207 56.5793C823.89 56.2444 823.227 55.7714 821.726 55.7714C820.129 55.7714 819.47 56.3046 819.166 56.6678C818.772 57.1366 818.642 57.7298 818.642 58.0303C818.642 58.3309 818.772 58.924 819.166 59.3928C819.47 59.756 820.129 60.2892 821.726 60.2892C821.993 60.2892 822.251 60.328 822.495 60.4003C824.731 60.723 826.436 61.7271 827.605 63.1201C828.949 64.7219 829.397 66.6136 829.397 67.9696C829.397 69.3256 828.949 71.2174 827.605 72.8192C826.172 74.5266 823.934 75.6499 820.898 75.6499C818.08 75.6499 815.934 74.6828 814.482 73.1449C813.454 72.0566 813.503 70.3409 814.589 69.3127C815.676 68.2843 817.39 68.3327 818.417 69.4206C818.733 69.7555 819.396 70.2285 820.898 70.2285C822.495 70.2285 823.153 69.6953 823.458 69.3321C823.851 68.8633 823.982 68.2701 823.982 67.9696C823.982 67.669 823.851 67.0759 823.458 66.6071C823.153 66.2439 822.495 65.7107 820.898 65.7107C820.631 65.7107 820.373 65.6719 820.129 65.5996C817.892 65.2769 816.188 64.2728 815.019 62.8798C813.675 61.278 813.226 59.3863 813.226 58.0303C813.226 56.6743 813.675 54.7826 815.019 53.1808Z" fill="#144DFF"/>
<rect x="877.857" y="20" width="86" height="86" rx="4" fill="black" stroke="#154EFE" stroke-width="2"/>
<path d="M894.536 39.2714L921.486 85.4714L948.436 39.2714H937.848L921.486 67.1839L905.123 39.2714H894.536Z" fill="#144DFF"/>
<path d="M905.123 39.2714L921.486 67.1839L937.848 39.2714H928.223L921.611 50.8457L914.748 39.2714H905.123Z" fill="#1E1E1E"/>
<rect x="984.714" y="20" width="86" height="86" rx="4" fill="black" stroke="#154EFE" stroke-width="2"/>
<path d="M1013.26 57.5524C1015.18 50.2889 1020 46.6571 1027.71 46.6571C1039.28 46.6571 1040.73 54.8286 1046.51 56.1905C1050.36 57.0984 1053.74 55.7365 1056.63 52.1048C1054.7 59.3682 1049.88 63 1042.17 63C1030.61 63 1029.16 54.8286 1023.38 53.4667C1019.52 52.5587 1016.15 53.9206 1013.26 57.5524ZM998.8 73.8952C1000.73 66.6317 1005.55 63 1013.26 63C1024.82 63 1026.27 71.1714 1032.05 72.5333C1035.91 73.4413 1039.28 72.0794 1042.17 68.4476C1040.24 75.7111 1035.42 79.3428 1027.71 79.3428C1016.15 79.3428 1014.7 71.1714 1008.92 69.8095C1005.06 68.9016 1001.69 70.2635 998.8 73.8952Z" fill="#144DFF"/>
<rect x="1091.57" y="20" width="86" height="86" rx="4" fill="black" stroke="#154EFE" stroke-width="2"/>
<mask id="mask0_20_7" style="mask-type:luminance" maskUnits="userSpaceOnUse" x="1106" y="34" width="58" height="57">
<path d="M1147.03 90.4153C1147.92 90.7643 1148.94 90.7419 1149.84 90.3069L1161.48 84.6736C1162.71 84.0816 1163.49 82.8364 1163.49 81.4705V43.2724C1163.49 41.9065 1162.71 40.6615 1161.48 40.0695L1149.84 34.4359C1148.66 33.8651 1147.27 34.0049 1146.24 34.7619C1146.09 34.87 1145.95 34.9907 1145.82 35.1238L1123.52 55.5712L1113.81 48.1607C1112.9 47.4709 1111.64 47.5274 1110.8 48.2951L1107.69 51.1434C1106.66 52.0825 1106.66 53.7067 1107.68 54.6474L1116.11 62.3713L1107.68 70.0954C1106.66 71.0361 1106.66 72.6603 1107.69 73.5994L1110.8 76.4475C1111.64 77.2154 1112.9 77.2718 1113.81 76.5821L1123.52 69.1715L1145.82 89.619C1146.17 89.9737 1146.58 90.241 1147.03 90.4153ZM1149.35 49.4625L1132.43 62.3713L1149.35 75.2803V49.4625Z" fill="white"/>
</mask>
<g mask="url(#mask0_20_7)">
<path d="M1161.52 40.0794L1149.86 34.4381C1148.51 33.7851 1146.9 34.0605 1145.84 35.1249L1107.68 70.0965C1106.66 71.0372 1106.66 72.6614 1107.69 73.6006L1110.8 76.4487C1111.64 77.2166 1112.91 77.273 1113.81 76.5833L1159.76 41.5429C1161.31 40.3674 1163.52 41.4726 1163.52 43.4176V43.2816C1163.52 41.9163 1162.74 40.6717 1161.52 40.0794Z" fill="#144DFF"/>
</g>
<mask id="mask1_20_7" style="mask-type:luminance" maskUnits="userSpaceOnUse" x="1106" y="34" width="58" height="57">
<path d="M1147.03 90.4153C1147.92 90.7643 1148.94 90.7419 1149.84 90.3069L1161.48 84.6736C1162.71 84.0816 1163.49 82.8364 1163.49 81.4705V43.2724C1163.49 41.9065 1162.71 40.6615 1161.48 40.0695L1149.84 34.4359C1148.66 33.8651 1147.27 34.0049 1146.24 34.7619C1146.09 34.87 1145.95 34.9907 1145.82 35.1238L1123.52 55.5712L1113.81 48.1607C1112.9 47.4709 1111.64 47.5274 1110.8 48.2951L1107.69 51.1434C1106.66 52.0825 1106.66 53.7067 1107.68 54.6474L1116.11 62.3713L1107.68 70.0954C1106.66 71.0361 1106.66 72.6603 1107.69 73.5994L1110.8 76.4475C1111.64 77.2154 1112.9 77.2718 1113.81 76.5821L1123.52 69.1715L1145.82 89.619C1146.17 89.9737 1146.58 90.241 1147.03 90.4153ZM1149.35 49.4625L1132.43 62.3713L1149.35 75.2803V49.4625Z" fill="white"/>
</mask>
<g mask="url(#mask1_20_7)">
<path d="M1161.52 84.6644L1149.86 90.3058C1148.51 90.9586 1146.9 90.6832 1145.84 89.619L1107.68 54.6473C1106.66 53.7067 1106.66 52.0824 1107.69 51.1433L1110.8 48.2951C1111.64 47.5273 1112.91 47.4707 1113.81 48.1606L1159.76 83.2008C1161.31 84.3763 1163.52 83.2712 1163.52 81.3261V81.4622C1163.52 82.8274 1162.74 84.072 1161.52 84.6644Z" fill="#144DFF"/>
</g>
<mask id="mask2_20_7" style="mask-type:luminance" maskUnits="userSpaceOnUse" x="1106" y="34" width="58" height="57">
<path d="M1147.03 90.4153C1147.92 90.7643 1148.94 90.7419 1149.84 90.3069L1161.48 84.6736C1162.71 84.0816 1163.49 82.8364 1163.49 81.4705V43.2724C1163.49 41.9065 1162.71 40.6615 1161.48 40.0695L1149.84 34.4359C1148.66 33.8651 1147.27 34.0049 1146.24 34.7619C1146.09 34.87 1145.95 34.9907 1145.82 35.1238L1123.52 55.5712L1113.81 48.1607C1112.9 47.4709 1111.64 47.5274 1110.8 48.2951L1107.69 51.1434C1106.66 52.0825 1106.66 53.7067 1107.68 54.6474L1116.11 62.3713L1107.68 70.0954C1106.66 71.0361 1106.66 72.6603 1107.69 73.5994L1110.8 76.4475C1111.64 77.2154 1112.9 77.2718 1113.81 76.5821L1123.52 69.1715L1145.82 89.619C1146.17 89.9737 1146.58 90.241 1147.03 90.4153ZM1149.35 49.4625L1132.43 62.3713L1149.35 75.2803V49.4625Z" fill="white"/>
</mask>
<g mask="url(#mask2_20_7)">
<path d="M1149.83 90.3103C1148.48 90.9627 1146.86 90.6871 1145.8 89.6226C1147.11 90.9341 1149.34 90.0051 1149.34 88.1504V36.5995C1149.34 34.7447 1147.11 33.8158 1145.8 35.1274C1146.86 34.0629 1148.48 33.7871 1149.83 34.4395L1161.48 40.0731C1162.7 40.665 1163.48 41.9101 1163.48 43.276V81.4741C1163.48 82.84 1162.7 84.085 1161.48 84.677L1149.83 90.3103Z" fill="#144DFF"/>
</g>
<rect x="1198.43" y="20" width="86" height="86" rx="4" fill="black" stroke="#154EFE" stroke-width="2"/>
<path d="M1269.27 59.8496L1244.57 35.1514C1243.91 34.4931 1243 34.0857 1241.99 34.0857C1240.98 34.0857 1240.07 34.4931 1239.41 35.1514L1234.3 40.2782L1240.8 46.7837C1241.22 46.6385 1241.69 46.5555 1242.19 46.5555C1244.58 46.5555 1246.52 48.4945 1246.52 50.8881C1246.52 51.3955 1246.44 51.8803 1246.28 52.333L1246.29 52.3028L1252.55 58.5726C1252.97 58.4236 1253.46 58.3368 1253.96 58.3368C1256.35 58.3368 1258.29 60.2758 1258.29 62.6676C1258.29 65.0593 1256.35 66.9983 1253.96 66.9983C1251.57 66.9983 1249.63 65.0593 1249.63 62.6676C1249.63 62.0772 1249.75 61.5151 1249.96 61.002L1249.95 61.0303L1244.08 55.1944V70.5746C1245.52 71.3008 1246.5 72.7683 1246.5 74.4621C1246.5 76.8576 1244.55 78.8004 1242.16 78.8004C1239.76 78.8004 1237.82 76.8576 1237.82 74.4621C1237.82 73.2662 1238.3 72.1854 1239.08 71.4007C1239.48 71.0028 1239.96 70.6802 1240.48 70.4539L1240.51 70.4425V54.9114C1238.92 54.2437 1237.83 52.6989 1237.83 50.9013C1237.83 50.2977 1237.95 49.7243 1238.17 49.2019L1238.16 49.2301L1231.77 42.8076L1214.83 59.7345C1214.18 60.3966 1213.77 61.3076 1213.77 62.3148C1213.77 63.3221 1214.18 64.2331 1214.83 64.8952L1239.54 89.5895C1240.19 90.2497 1241.1 90.6571 1242.11 90.6571C1243.12 90.6571 1244.03 90.2497 1244.69 89.5895L1269.27 65.0046C1269.93 64.3463 1270.34 63.4334 1270.34 62.428C1270.34 61.4227 1269.93 60.5097 1269.27 59.8514L1269.27 59.8496Z" fill="#144DFF"/>
<rect x="1303.29" y="18" width="90" height="90" rx="6" fill="black" stroke="#154EFE" stroke-width="2"/>
<path d="M1357.69 56.0426C1353.8 56.0426 1350.64 59.1575 1350.64 63.0009C1350.64 66.8443 1353.8 69.9592 1357.69 69.9592H1357.92C1361.81 69.9592 1364.97 66.8443 1364.97 63.0009C1364.97 59.1575 1361.81 56.0426 1357.92 56.0426H1357.69ZM1357.92 73.349H1357.69C1351.9 73.349 1347.21 68.7162 1347.21 63.0009C1347.21 57.2856 1351.9 52.6529 1357.69 52.6529H1357.92C1363.71 52.6529 1368.4 57.2856 1368.4 63.0009C1368.4 68.7162 1363.71 73.349 1357.92 73.349ZM1339.94 73.349C1336.04 73.349 1332.89 76.4639 1332.89 80.3073C1332.89 84.1507 1336.04 87.2656 1339.93 87.2656C1339.95 87.2656 1339.98 87.2656 1340 87.2656H1339.99C1340 87.2656 1340.01 87.2656 1340.01 87.2656C1343.98 87.2656 1347.19 84.1046 1347.21 80.1966V73.349H1339.94ZM1339.99 90.6571C1339.97 90.6571 1339.94 90.6571 1339.91 90.6571C1334.12 90.6571 1329.43 86.0244 1329.43 80.3091C1329.43 74.5938 1334.12 69.9611 1339.91 69.9611C1339.92 69.9611 1339.93 69.9611 1339.94 69.9611H1350.64V80.1966C1350.62 85.9783 1345.87 90.6571 1340.01 90.6571C1340.01 90.6571 1340 90.6571 1339.99 90.6571ZM1339.94 56.0426C1336.04 56.0426 1332.89 59.1575 1332.89 63.0009C1332.89 66.8443 1336.04 69.9611 1339.94 69.9611L1347.21 69.9592V56.0445L1339.94 56.0426ZM1350.64 73.349H1339.94C1334.15 73.349 1329.46 68.7162 1329.46 63.0009C1329.46 57.2856 1334.15 52.6529 1339.94 52.6529H1350.64L1350.64 73.349ZM1339.94 38.7363C1336.04 38.7363 1332.89 41.8512 1332.89 45.6946C1332.89 49.538 1336.04 52.6529 1339.94 52.6529H1347.21V38.7344L1339.94 38.7363ZM1350.64 56.0426H1339.94C1334.15 56.0426 1329.45 51.4099 1329.45 45.6927C1329.45 39.9756 1334.15 35.3429 1339.94 35.3429H1350.64V56.0408L1350.64 56.0426ZM1350.64 52.6529H1357.92C1361.8 52.6437 1364.95 49.5324 1364.95 45.6946C1364.95 41.8567 1361.8 38.7455 1357.92 38.7363H1350.64L1350.64 52.6529ZM1357.92 56.0426L1347.21 56.0445V35.3447H1357.92C1363.71 35.3447 1368.4 39.9774 1368.4 45.6946C1368.4 51.4117 1363.71 56.0426 1357.92 56.0426Z" fill="#144DFF"/>
</g>
<defs>
<clipPath id="clip0_20_7">
<path d="M0 0H1415V117C1415 122.523 1410.52 127 1405 127H10C4.47716 127 0 122.523 0 117V0Z" fill="white"/>
</clipPath>
<clipPath id="clip1_20_7">
<rect width="56.5714" height="56.5714" fill="white" transform="translate(252.057 34.0857)"/>
</clipPath>
</defs>
</svg>
